<?xml version="1.0" encoding="utf-8"?>
<!-- Generator: Adobe Illustrator 16.0.0, SVG Export Plug-In . SVG Version: 6.00 Build 0)  -->
<!DOCTYPE svg PUBLIC "-//W3C//DTD SVG 1.1//EN" "http://www.w3.org/Graphics/SVG/1.1/DTD/svg11.dtd">
<svg version="1.1" xmlns="http://www.w3.org/2000/svg" xmlns:xlink="http://www.w3.org/1999/xlink" x="0px" y="0px" width="756px"
	 height="1057px" viewBox="0 0 756 1057" enable-background="new 0 0 756 1057" xml:space="preserve">
<g id="Layer_1">
</g>
<g id="Layer_2">
	<path fill-rule="evenodd" fill="white" clip-rule="evenodd" d="M97.349,274.182c3.449-9.511,4.794-20.045,13.209-27.138l-0.074-0.093
		c-1.835,3.168-3.671,6.336-5.506,9.504c0.241,0.129,0.482,0.257,0.724,0.386c1.628-1.267,3.256-2.534,4.884-3.8l-0.099-0.092
		c-1.308,1.837-2.427,3.852-3.959,5.478c-4.271,4.533-5.27,9.754-2.772,14.808c2.522-3.366,5.135-6.852,7.749-10.337
		c-2.449,5.048-4.899,10.095-7.35,15.142c0.5,0.253,1,0.507,1.5,0.76c3.027-5.508,6.055-11.016,9.453-17.198
		c-1.882,0.725-2.83,1.089-3.778,1.455c1.355-1.825,2.636-3.71,4.076-5.464c8.989-10.946,18.013-21.863,27.026-32.79
		c-0.24-0.268-0.48-0.536-0.72-0.804c-2.602,1.618-5.203,3.236-7.804,4.854c0.847-0.983,1.537-2.19,2.566-2.915
		c10.017-7.05,20.164-13.918,30.115-21.06c4.33-3.107,8.289-6.729,12.417-10.118c-0.294-0.447-0.588-0.895-0.882-1.342
		c-4.656,1.888-9.311,3.775-13.967,5.663c9.365-4.675,18.73-9.35,28.095-14.025c-2.735,0.254-5.595,0.688-8.25,1.673
		c-5.419,2.012-10.727,4.322-16.081,6.509c8.184-6.502,17.771-9.397,27.863-11.348c5.303-1.025,10.617-2.598,15.555-4.769
		c7.917-3.482,15.528-7.661,23.262-11.559c1.426-0.718,2.819-1.501,4.228-2.255c-0.156-0.564-0.313-1.129-0.469-1.694
		c-8.23,1.807-16.46,3.615-24.69,5.422c-0.112-0.354-0.225-0.709-0.337-1.063c4.843-1.411,9.603-3.346,14.545-4.125
		c10.878-1.714,22.353-0.5,32.343-6.986c-11.122-2.731-49.661,8.163-70.323,19.106c1.82-1.372,3.547-2.893,5.475-4.091
		c13.26-8.244,28.104-11.853,43.194-14.865c8.149-1.627,16.137-4.063,24.289-5.671c8.114-1.602,16.342-2.625,24.52-3.901
		c0.05-0.466,0.1-0.932,0.15-1.398c-1.176-0.483-2.352-0.967-2.941-1.21c13.768-0.8,28.14-1.636,42.513-2.472
		c0.03,0.512,0.06,1.024,0.09,1.536c-4.877,0-9.754,0-14.632,0c-0.006,0.424-0.013,0.847-0.02,1.271
		c9.086,0.444,18.303,0.104,27.215,1.59c6.732,1.123,13.134,4.437,19.573,7.046c5.322,2.156,10.484,4.708,16.017,6.481
		c-7.338-7.743-17.812-9.792-26.592-14.867c23.939,7.454,43.795,21.793,62.515,38.049c0.368-0.423,0.736-0.847,1.104-1.271
		c-2.199-2.164-4.347-4.383-6.613-6.474c-2.245-2.071-4.61-4.012-6.923-6.01c0.288-0.329,0.576-0.657,0.864-0.985
		c5.138,4.562,10.203,9.209,15.434,13.662c5.417,4.612,10.541,9.789,16.575,13.419c38.161,22.964,71.228,52.03,101.861,84.059
		c9.767,10.212,19.203,20.739,28.926,30.994c2.268,2.392,5.09,4.258,7.648,6.375c7.678,6.355,8.266,12.702,0.794,18.991
		c-6.632,5.582-5.408,12.312-4.342,19.22c0.149,0.97,1.646,1.94,2.728,2.526c30.567,16.569,53.839,41.074,74.334,68.531
		c2.323,3.114,3.935,6.988,5.001,10.758c1.615,5.705-0.627,10.536-5.266,14.057c-7.052,5.353-14.83,8.742-23.922,8.899
		c-7.417,0.129-8.298,1.532-7.366,8.854c1.367,10.738,2.789,21.477,3.8,32.252c0.53,5.641,0.491,11.424-4.401,15.906
		c0.921,1.209,1.54,2.444,2.519,3.236c7.809,6.329,8.042,14.642,3.45,22.027c-6.925,11.138-6.911,20.959,0.008,32.029
		c3.022,4.836,3.969,11.323,4.644,17.201c1.497,13.044-5.471,22.418-15.455,29.354c-5.516,3.833-12.042,6.49-18.447,8.713
		c-22.357,7.76-43.427,17.515-61.52,33.341c-11.641,10.184-24.38,19.118-36.697,28.52c-2.111,1.612-3.081,2.992-1.933,5.804
		c4.909,12.021,9.524,24.162,14.385,36.205c2.304,5.709,6.104,9.93,11.708,13.042c10.967,6.089,22.246,10.986,34.269,14.809
		c20.955,6.664,38.313,19.607,52.551,36.066c11.355,13.129,23.325,25.031,37.521,35.284c23.261,16.798,39.957,39.483,51.461,65.784
		c5.403,12.353,10.5,24.861,15.129,37.521c2.441,6.676,3.675,13.807,5.275,20.772c1.254,5.46-1.278,9.576-4.945,13.399
		c-13.376,13.945-29.447,18.45-47.854,13.03c-14.02-4.129-28.159-8.282-41.545-14.05c-32.725-14.102-64.523-30.468-97.657-43.468
		c-39.643-15.554-80.037-29.322-120.562-42.46c-46.753-15.156-94.546-26.501-142.812-35.986
		c-49.856-9.798-99.624-10.11-149.536-1.394c-13.725,2.397-26.494,7.734-38.814,14.159c-4.725,2.465-9.468,4.905-14.299,7.151
		c-1.828,0.85-3.926,1.119-7.031,1.959c0.81-3.146,1.205-5.171,1.852-7.113c7.522-22.59,19.305-43.163,30.926-63.729
		c17.526-31.016,35.764-61.631,53.69-92.421c0.313-0.538,0.527-1.135,0.395-0.845c-3.859-3.71-7.329-7.045-10.796-10.377
		c4.016,2.586,8.029,5.17,12.042,7.753c0.188-0.363,0.375-0.728,0.563-1.091c-4.674-4.062-9.348-8.123-14.667-12.744
		c0.935,2.61,1.588,4.436,2.242,6.26c-0.963-1.472-2.65-2.893-2.758-4.424c-0.394-5.603-3.913-9.211-7.108-13.274
		c-9.785-12.443-13.955-26.653-12.715-42.504c0.18-2.297-0.428-4.958-1.517-7c-5.381-10.095-9.079-20.624-9.542-32.149
		c2.884,9.301,3.406,19.511,10.099,27.309c0.477-0.158,0.954-0.316,1.431-0.475c-1.039-3.182-2.139-6.346-3.1-9.551
		c-0.975-3.252-2.561-6.537-2.592-9.82c-0.208-21.508,0.388-42.973,5.603-64.028c0.382-1.543-0.17-3.315-1.163-5.014
		c-7.788,18.489-6.668,38.013-6.587,57.406c-0.408,0.013-0.815,0.026-1.224,0.04c-0.572-5.718-1.771-11.455-1.595-17.149
		c0.463-14.963,1.557-29.904,2.309-44.859c0.088-1.75-0.274-3.55-0.618-5.289c-1.958-9.906-4.98-19.729-5.697-29.721
		c-0.771-10.723,0.621-21.6,1.03-32.412c0.055-1.459,0.337-3.146-0.25-4.357c-7.682-15.833-6.561-32.101-3.767-48.88
		c1.929-11.586,1.728-23.529,2.408-35.316c0.062-1.064-0.392-2.158-0.605-3.238c-0.555-0.017-1.109-0.033-1.664-0.049
		c-1.844,20.812-3.689,41.624-5.533,62.437c1.019-28.502-0.062-57.154,7.143-86.723c-2.078,2.696-3.266,4.237-4.453,5.778
		c-0.284-0.081-0.567-0.163-0.851-0.244c1.176-4.703,2.376-9.399,3.524-14.108c3.742-15.35,7.444-30.709,11.219-46.05
		c0.546-2.22,1.406-4.362,2.121-6.54c-0.235,2.281-0.471,4.562-0.735,7.129c7.342-1.962,9.726-9.594,5.922-20.889
		C99.198,270.931,98.273,272.556,97.349,274.182z M91.768,519.914c2.857-6.794,5.264-19.371,2.791-24.359
		c-3.918-7.902-3.146-16.324-4.771-24.441c-0.612-3.058-1.005-6.159-1.499-9.24C83.487,481.402,84.974,500.438,91.768,519.914z
		 M86.331,451.837c1.969-6.852-0.819-26.13-4.606-33.385C79.086,426.955,80.947,441.031,86.331,451.837z M100.963,638.001
		c-0.86,13.131,4.693,28.852,12.907,36.166C109.45,661.781,105.402,650.438,100.963,638.001z M111.006,658.085
		c-1.054-7.418,0.509-14.171-3.561-20.26C103.477,641.113,105.165,651.344,111.006,658.085z"/>
</g>
</svg>
