<?xml version="1.0" encoding="utf-8"?>
<!-- Generator: Adobe Illustrator 16.0.0, SVG Export Plug-In . SVG Version: 6.00 Build 0)  -->
<!DOCTYPE svg PUBLIC "-//W3C//DTD SVG 1.1//EN" "http://www.w3.org/Graphics/SVG/1.1/DTD/svg11.dtd">
<svg version="1.1" id="Layer_1" xmlns="http://www.w3.org/2000/svg" xmlns:xlink="http://www.w3.org/1999/xlink" x="0px" y="0px"
	 width="756px" height="1057px" viewBox="0 0 756 1057" enable-background="new 0 0 756 1057" xml:space="preserve">
<g>
	
	<path fill-rule="evenodd" fill="white" clip-rule="evenodd" d="M56.587,814.919c3.412-8.617,6.175-17.565,10.364-25.787
		c10.653-20.911,22.21-41.362,32.856-62.276c4.554-8.948,7.872-18.544,11.367-27.987c0.389-1.05-1.567-4.186-2.752-4.375
		c-3.821-0.61-3.386-2.614-2.977-5.38c2.604-17.585,5.077-35.188,7.571-52.789c0.256-1.81,0.224-3.668,0.573-5.455
		c1.812-9.266,6.591-13.332,15.948-12.832c4.103,0.219,5.799-1.084,6.021-5.046c0.327-5.82,0.798-11.634,1.28-17.444
		c0.417-5.021,2.288-6.73,7.359-6.626c3.162,0.065,6.372,0.072,9.465,0.63c4.556,0.821,6.759-1.291,7.058-5.387
		c0.896-12.278,1.78-24.569,2.084-36.87c0.061-2.444-2.028-5.37-3.895-7.348c-4.203-4.451-8.888-8.448-14.132-13.332
		c-1.305,3.304-2.464,6.236-4.226,10.696c-1.2-12.066-2.251-22.915-3.369-33.757c-0.418-4.056-0.174-8.423-1.638-12.086
		c-5.24-13.115-6.642-27-9.163-40.674c-0.355-1.929-1.287-3.756-1.984-5.618c-9.739-25.998-20.58-51.721-22.762-79.819
		c-0.694-8.936,0.339-17.994-0.09-26.965c-0.348-7.255-0.789-14.728-2.801-21.635c-4.401-15.11-4.426-30.595-5.541-46.014
		c-0.119-1.647-0.184-3.299-0.283-5.115c-0.893,0.366-1.571,0.645-2.388,0.98c0.029-0.595-0.016-1.089,0.085-1.55
		c2.961-13.495,5.979-26.978,8.898-40.481c2.798-12.94,11.321-22.835,17.774-33.842c5.798-9.888,11.2-20.015,17.186-29.785
		c3.476-5.674,5.846-11.592,7.77-17.949c2.188-7.231,7.848-12.136,14.893-14.483c4.548-1.515,6.681-4.516,8.477-8.316
		c5.03-10.647,17.163-16.615,28.799-13.577c5.254,1.371,10.217,3.857,15.436,5.885c4.152-4.822,4.271-7.2,0.381-12.29
		c-5.975-7.817-14.238-10.565-23.683-10.685c-1.827-0.023-3.655-0.003-5.358-0.003c7.449-4.924,19.086-1.042,33.47,11.649
		c11.446-6.944,20.151-17.259,30.401-27.083c-0.855,1.662-1.385,2.693-1.916,3.725c0.203,0.239,0.405,0.479,0.607,0.718
		c7.01-4.659,14.014-9.327,21.037-13.968c1.099-0.726,2.241-1.415,3.433-1.97c5.958-2.773,12.079-5.234,17.872-8.313
		c5.379-2.858,10.363-4.776,16.946-3.865c4.594,0.636,9.777-2.04,14.525-3.719c4.835-1.71,9.462-4.013,14.899-6.367
		c-2.059-4.562-4.044-8.961-6.03-13.361c0.289-0.151,0.578-0.301,0.866-0.452c2.377,4.272,5.205,8.364,7.003,12.867
		c1.801,4.508,6.008,4.139,9.262,5.293c0.942,0.334,3.499-2.71,4.721-4.591c2.504-3.854,4.607-7.969,7.741-11.787
		c0,2.366,0.005,4.731-0.001,7.097c-0.011,4.219,1.568,4.835,5.576,3.895c6.537-1.534,13.236-2.564,19.924-3.125
		c1.5-0.125,3.573,2.324,4.777,4.019c1.43,2.012,2.11,6.374,3.28,6.433c4.596,0.231,9.397-0.332,13.841-1.592
		c2.825-0.801,5.155-3.349,7.707-5.113c0.32,0.351,0.641,0.702,0.96,1.053c-2.78,2.25-5.561,4.5-8.342,6.75
		c0.5,0.676,0.999,1.353,1.498,2.029c3.313-1.806,6.632-3.601,9.937-5.42c3.479-1.916,6.944-3.855,11.074-6.151
		c-1.074,1.297-1.793,2.164-2.511,3.031c0.133,0.393,0.266,0.786,0.398,1.179c2.417-0.885,5.08-1.386,7.194-2.743
		c3.57-2.291,6.823-4.133,10.977-1.244c0.695,0.483,2.303-0.343,3.592-0.583c0.097,1.229,0.21,2.665,0.342,4.339
		c3.029-1.373,5.785-2.623,8.542-3.873c0.408,0.432,0.815,0.864,1.224,1.296c-3.402,8.049-12.296,12.359-15.793,22.182
		c7.078-4.262,13.249-7.977,19.948-12.01c-2.563,5.318-4.8,9.965-7.038,14.612c0.536,0.413,1.072,0.826,1.608,1.24
		c1.339-0.691,2.78-1.239,3.999-2.1c4.616-3.259,9.035-6.82,13.804-9.831c1.59-1.004,4.102-1.219,6.028-0.877
		c4.062,0.72,6.915-0.707,9.853-3.352c2.929-2.637,6.454-4.611,10.286-7.271c-0.202,1.556-0.33,2.88-0.553,4.189
		c-1.138,6.699-2.385,13.381-3.422,20.095c-0.62,4.019,2.915,8.125,7.011,8.366c7.275,0.429,13.903-0.468,20.055-5.434
		c4.482-3.618,10.349-5.523,15.598-8.191c0.203,0.39,0.407,0.779,0.61,1.169c-4.771,2.494-9.542,4.989-14.313,7.483
		c0.279,0.795,0.56,1.591,0.84,2.386c6.976-1.79,14.451-2.558,20.783-5.66c6.242-3.059,11.326-8.483,17.293-13.162
		c-3.138,5.024-6.32,9.964-9.319,15.014c-0.936,1.576-1.377,3.445-2.044,5.18c2.196,0.475,4.765,1.906,6.511,1.226
		c3.601-1.402,6.763-3.93,10.307-6.119c-5.439,8.382-10.903,16.802-17.107,26.363c10.317,1.905,20.219-1.087,28.356,5.855
		c-8.881,0-17.308-0.321-25.682,0.198c-2.49,0.154-5.004,2.461-7.154,4.214c-0.759,0.619-1.052,3.287-0.533,3.686
		c1.075,0.826,2.964,1.285,4.294,0.965c4.807-1.155,9.521-2.696,14.486-3.43c-4.969,1.918-9.937,3.837-14.905,5.756
		c0.01,0.524,0.019,1.049,0.028,1.574c1.667,0.096,3.356,0.415,4.998,0.252c13.542-1.341,27.074-2.772,40.61-4.175
		c0.044,0.431,0.089,0.861,0.134,1.292c-11.729,1.167-23.458,2.333-35.188,3.5c0.016,0.559,0.032,1.119,0.048,1.678
		c9.184,0.239,18.426,1.226,27.537,0.525c10.913-0.839,21.826-2.618,32.519-4.986c5.212-1.154,6.901,3.497,10.615,3.953
		c-3.727,1.521-7.522,2.814-11.035,4.651c-1.12,0.586-1.882,2.569-2.038,3.998c-0.081,0.75,1.397,1.83,2.356,2.493
		c1.208,0.835,2.802,1.169,3.89,2.111c6.833,5.91,14.486,7.817,23.564,4.918c0.11,2.513,0.213,4.848,0.31,7.073
		c-6.247,3.257-12.797,6.67-19.346,10.084c0.293,0.886,0.586,1.771,0.88,2.656c6.545-0.96,13.091-1.92,19.636-2.881
		c0.208,0.394,0.416,0.788,0.624,1.182c-5.427,2.884-10.622,6.412-16.347,8.468c-5.481,1.969-11.513,2.408-17.302,3.52
		c-0.189,0.615-0.38,1.229-0.569,1.844c5.319,2.702,10.557,5.586,15.982,8.056c5.52,2.514,11.225,4.621,16.494,7.845
		c-5.477-2.039-10.952-4.079-16.428-6.118c-0.202,0.357-0.404,0.714-0.605,1.071c6.693,4.329,16.113,5.744,17.577,15.992
		c-7.203-1.815-14.336-3.612-21.469-5.408c-0.222,0.467-0.444,0.934-0.666,1.4c1.121,0.856,2.136,1.937,3.382,2.534
		c7.048,3.377,14.306,6.353,21.172,10.06c3.538,1.91,6.41,5.052,10.695,8.544c-6.608-1.32-11.617-2.321-16.627-3.322
		c-0.144,0.446-0.286,0.893-0.43,1.339c3.063,1.379,6.126,2.759,9.188,4.139c-0.069,0.207-0.139,0.414-0.208,0.621
		c-3.873-1.16-7.746-2.319-12.079-3.617c0.059,4.91,3.409,5.862,6.367,7.013c7.75,3.013,15.555,5.882,23.313,8.873
		c1.489,0.574,2.866,1.442,4.109,2.607c-6.305-2.297-12.608-4.595-18.912-6.893c-0.201,0.433-0.402,0.865-0.603,1.297
		c10.003,6.477,19.341,14.104,30.356,17.548c1.475,2.56,2.866,4.974,4.243,7.364c-19.523,0-39.334,0-59.144,0
		c-0.084,0.151-0.167,0.303-0.251,0.454c5.405,0.905,10.811,1.81,16.215,2.714c-0.055,0.417-0.11,0.834-0.166,1.251
		c-7.945-1.152-15.891-2.305-23.837-3.457c-0.063,0.475-0.126,0.949-0.189,1.424c7.961,4.496,17.063,4.666,25.866,5.969
		c-0.09,0.5-0.18,1.001-0.27,1.502c-7.631-1.323-15.398-2.14-22.848-4.139c-5.399-1.449-10.573-2.436-16.131-1.691
		c-5.412,0.726-10.868,1.124-16.306,1.666c-0.086,0.463-0.171,0.926-0.257,1.389c6.344,1.82,12.687,3.64,19.03,5.46
		c-18.04-3.652-35.954-8.317-55.31-8.147c0.752,6.206,1.607,12.558,2.279,18.93c3.58,33.94,7.111,67.886,10.672,101.829
		c0.138,1.313-0.033,2.965,0.688,3.85c2.061,2.53,2.442,5.174,0.589,7.628c-2.293,3.034-3.473,7.328-8.363,7.806
		c-1.93,0.189-3.878,1.021-5.643,1.908c-4.812,2.42-6.197,5.78-3.854,10.663c6.047,12.606,11.893,25.347,18.702,37.541
		c7.706,13.799,13.256,28.336,17.359,43.483c2.834,10.457,0.136,17.614-9.493,22.681c-6.701,3.526-14.055,5.977-21.342,8.152
		c-3.412,1.019-5.777,2.223-6.575,5.682c-1.708,7.399-3.4,14.803-4.972,22.231c-1.069,5.053-0.307,10.789-6.632,13.529
		c-0.914,0.396-1.124,4.627-0.291,6.461c3.396,7.479,1.841,10.875-6.21,12.846c-2.866,0.702-5.781,1.756-8.278,3.293
		c-4.65,2.861-5.616,6.518-3.482,11.578c3.523,8.357,6.295,16.883,5.801,26.101c-0.455,8.485-3.964,15.496-12.156,18.512
		c-19.622,7.221-39.645,13.016-60.929,10.924c-5.926-0.582-11.725-2.38-17.608-3.482c-3.587-0.673-7.296-1.778-10.813-1.403
		c-3.038,0.324-6.897,1.7-8.601,3.961c-3.628,4.818-6.094,10.513-9.347,16.413c9.035,0.496,17.11,0.933,25.185,1.388
		c1.496,0.085,2.986,0.276,4.482,0.364c7.754,0.454,11.616,3.596,14.999,11.75c6.964,16.789,16.016,32.915,25.861,48.252
		c10.409,16.214,22.71,31.216,34.285,46.671c1.045,1.396,2.726,2.414,4.28,3.314c35.149,20.338,60.486,49.261,75.558,86.96
		c5.8,14.506,10.849,29.313,16.137,44.019c0.722,2.009,0.723,4.266,1.271,6.352c1.568,5.959-0.444,10.566-4.606,14.904
		c-13.542,14.111-29.492,17.712-48.366,13.243c-21.271-5.037-40.905-13.956-60.608-22.943
		c-77.122-35.178-154.586-69.561-233.654-100.201c-27.058-10.485-54.449-19.776-83.308-24.106
		c-36.631-5.494-71.744-1.867-104.581,16.533c-4.06,2.275-8.304,4.244-12.56,6.136c-1.54,0.685-3.365,0.729-5.06,1.066
		C57.411,815.781,56.999,815.35,56.587,814.919z M177.389,111.401c4.375,2.328,8.62,4.229,12.478,6.729
		c5.216,3.381,10.444,0.225,15.642,0.479c0.865,0.042,1.826-1.882,2.771-2.93C197.692,107.626,185.325,106.026,177.389,111.401z
		 M167.599,124.738c8.189,0.267,16.217-3.11,17.858-8.363c-4.125-0.784-8.612-3.001-12.023-1.896
		C170.11,115.555,167.234,119.684,167.599,124.738z M161.342,129.32c-9.443,2.092-16.881,10.35-17.524,19.27
		C148.496,141.455,157.621,138.326,161.342,129.32z"/>
	
</g>
</svg>
