<?xml version="1.0" encoding="utf-8"?>
<!-- Generator: Adobe Illustrator 16.0.0, SVG Export Plug-In . SVG Version: 6.00 Build 0)  -->
<!DOCTYPE svg PUBLIC "-//W3C//DTD SVG 1.1//EN" "http://www.w3.org/Graphics/SVG/1.1/DTD/svg11.dtd">
<svg version="1.1" id="Layer_1" xmlns="http://www.w3.org/2000/svg" xmlns:xlink="http://www.w3.org/1999/xlink" x="0px" y="0px"
	 width="756px" height="1057px" viewBox="0 0 756 1057" enable-background="new 0 0 756 1057" xml:space="preserve">
<g>
	
	<path fill-rule="evenodd" fill="white" clip-rule="evenodd" d="M88.709,847.526c3.518-8.882,6.349-18.117,10.688-26.578
		c11.398-22.221,23.432-44.116,35.26-66.116c3.53-6.565,7.22-13.047,11.091-20.025c-1.84-0.486-3.17-0.837-5.004-1.322
		c1.79-10.413,3.434-20.728,5.355-30.99c2.849-15.22,5.84-30.413,8.883-45.595c1.181-5.891,2.879-11.258,10.32-12.416
		c1.472-0.229,3.362-3.989,3.391-6.143c0.097-7.147-0.88-14.31-0.776-21.457c0.038-2.593,1.956-5.161,3.026-7.736
		c0.727-1.747,2.291-3.592,2.083-5.214c-2.131-16.616-7.449-32.021-17.79-45.494c-1.538-2.003-2.396-4.69-3.024-7.198
		c-1.767-7.056-2.804-14.32-4.936-21.255c-4.449-14.471-9.366-28.799-14.191-43.152c-2.916-8.674-5.598-17.463-9.131-25.887
		c-6.656-15.87-6.746-32.819-9.054-49.425c-3.208-23.085-1.064-46.221-1.375-69.337c-0.288-21.399,4.615-41.606,9.707-61.883
		c2.826-11.255,7.414-22.068,11.194-33.085c0.259-0.756,0.401-1.553,0.06-2.55c-7.801,10.94-11.423,23.756-17.162,36.015
		c0.436-3.049,0.232-6.376,1.415-9.101c6.15-14.171,12.335-28.346,19.184-42.185c2.922-5.904,4.56-11.632,4.19-18.156
		c-0.295-5.208-0.06-10.445-0.06-15.67c0.479-0.101,0.958-0.203,1.437-0.304c1.359,1.741,2.577,3.618,4.106,5.194
		c3.051,3.144,4.892,2.572,7.466-0.763c8.616-11.163,14.141-23.946,20.479-36.384c3.34-6.555,9.833-11.545,15.118-17.036
		c1.065-1.106,3.098-1.281,3.969-2.598c-7.055-2.733-15.524,2.472-27.253,14.515c-7.384,7.581-13.18,16.115-16.473,26.497
		c-0.938-5.676-2.196-11.492,1.108-16.277c5.93-8.588,12.24-16.975,19.049-24.878c6.398-7.425,15.438-9.638,24.901-9.469
		c9.228,0.164,16.938-1.867,24.553-8.104c10.338-8.467,22.322-14.926,33.74-22.337c-0.043,0.366-0.132,1.114-0.261,2.208
		c6.583-1.733,13.076-3.442,19.568-5.15c0.193-0.4,0.385-0.8,0.578-1.2c-1.616-0.956-3.122-2.335-4.868-2.792
		c-6.596-1.729-12.598,0.424-18.033,3.894c-5.146,3.285-9.928,7.138-16.059,11.608c3.785-7.851,9.66-11.93,15.367-15.909
		c6.971-4.859,14.964-5.371,23.032-3.35c3.336,0.836,5.97,0.451,8.851-1.486c10.357-6.965,22.026-10.884,33.957-14.172
		c1.701-0.469,3.161-1.809,4.733-2.745c-1.736-1.029-3.655-3.153-5.176-2.898c-6.802,1.139-13.503,2.907-20.21,4.569
		c-1.42,0.352-2.713,1.214-4.065,1.841c-0.367-0.642-0.734-1.285-1.102-1.927c4.114-2.393,7.96-5.912,12.392-6.965
		c12.609-2.996,25.409-5.324,38.246-7.117c2.905-0.406,6.804,1.781,9.299,3.893c5.634,4.769,12.157,5.504,19.102,5.915
		c1.431-4.16,2.839-8.254,4.247-12.349c0.393,0.062,0.785,0.124,1.178,0.185c1.533,4.45,3.066,8.9,4.83,14.019
		c1.574-1.787,2.513-2.852,3.344-3.795c1.215,1.958,2.097,5.067,3.502,5.325c4.179,0.767,8.844,1.387,12.797,0.25
		c4.896-1.408,6.172-9.276,2.03-12.466c-3.956-3.047-8.931-4.817-13.558-6.928c-1.773-0.81-3.825-1.009-5.87-1.517
		c8.435-4.638,20.663-1.214,25.154,6.98c0.793,1.447,1.329,3.044,1.901,4.603c2.628,7.15,6.202,8.354,13.118,4.841
		c5.392-2.739,10.989-5.071,16.495-7.584c0.216,0.358,0.431,0.716,0.646,1.074c-1.548,2.579-3.095,5.157-5.446,9.077
		c6.269-1.167,11.068-2.061,17.005-3.167c-3.953,3.261-7.026,5.796-10.269,8.471c8.235,5.314,11.838,5.292,18.211,0.093
		c1.794-1.463,3.392-3.192,4.945-4.919c16.984-18.886,27.076-19.988,49.583-10.505c8.011,3.375,15.852,4.71,24.27,4.018
		c9.109-0.749,18.101-1.931,27.271,0.684c4.98,1.419,10.544,0.706,15.821,1.201c4.12,0.386,7.646,1.739,12.354-0.369
		c3.413-1.529,9.513,1.013,13.532,3.293c4.279,2.428,7.471,6.742,11.24,10.117c1.471,1.316,3.154,2.439,4.865,3.434
		c4.316,2.51,8.689,4.925,13.066,7.329c20.686,11.361,30.163,30.267,34.85,52.234c0.823,3.857,1.995,8.417-2.981,11.587
		c1.129-5.932,0.365-11.224-3.822-15.988c-3.461,3.415-4.66,6.661-3.348,11.577c3.56,13.326,2.845,26.423-4.513,38.589
		c-0.974,1.61-2.189,3.073-3.758,4.379c2.751-9.717,8.707-18.62,6.521-29.283c-0.587-2.863-1.658-5.626-3.191-8.495
		c2.251,7.967-3.581,12.511-6.875,18.109c-0.945,1.607-1.381,3.653-1.549,5.542c-0.19,2.134,0.158,4.32,0.317,6.48
		c0.929,12.665-1.03,24.49-9.049,34.928c-4.079,5.31-7.469,11.148-11.17,16.748c-0.604-0.33-1.208-0.659-1.813-0.989
		c2.731-5.756,4.459-12.337,8.382-17.115c11.711-14.264,9.251-29.977,6.47-47.281c-3.855,6.56-7.854,11.32-7.941,18.678
		c-0.157,13.344-4.64,25.687-11.962,37.006c1.686-5.689,3.372-11.379,5.059-17.069c-0.431-0.166-0.861-0.331-1.293-0.496
		c-0.662,1.359-1.222,2.781-2.004,4.067c-4.046,6.642-8.269,13.181-12.135,19.925c-0.804,1.402-0.969,3.75-0.396,5.273
		c5.157,13.712,10.737,27.267,15.786,41.017c2.687,7.318,5.558,14.803,6.538,22.445c0.996,7.753-0.125,15.798-0.554,23.703
		c-0.124,2.285-0.909,4.574-1.641,6.779c-3.551,10.691-3.162,20.21,5.796,28.711c4.88,4.63,8.141,10.93,12.363,16.294
		c8.641,10.98,17.298,21.953,26.218,32.705c6.319,7.616,10.039,16.08,9.87,26.009c-0.149,8.756-4.57,13.904-13.097,15.572
		c-3.756,0.735-7.557,1.253-11.349,1.783c-6.548,0.915-9.112,3.794-7.427,10.101c2.012,7.525,4.921,14.815,7.548,22.169
		c0.725,2.026,1.92,3.879,2.746,5.875c2.201,5.321,1.529,10.205-2.842,14.133c-4.938,4.436-10.066,8.658-15.395,13.215
		c1.094,2.886,2.269,5.979,3.438,9.076c2.385,6.314,1.563,11.974-3.033,17.146c-3.2,3.602-6.064,7.505-9.013,11.325
		c-3.089,4.002-3.035,7.872-0.535,12.453c3.726,6.828,8.019,13.789,9.671,21.227c5.929,26.688-7.5,43.289-34.99,44.597
		c-19.033,0.905-37.473-2.57-55.755-7.362c-10.469-2.744-20.959-5.409-31.466-8.004c-16.437-4.06-31.488,3.556-36.927,19.731
		c-4.819,14.334-8.446,29.07-12.538,43.646c-0.937,3.336-1.622,6.741-2.636,11.015c11.195-1.079,14.314,6.044,15.023,14.664
		c1.198,0,1.644,0.137,1.807-0.02c8.091-7.79,17.982-9.264,28.683-8.64c9.31,0.543,18.652,0.7,27.98,0.685
		c4.729-0.008,6.934,2.436,7.087,6.561c0.234,6.304,0.159,12.651-0.303,18.942c-1.516,20.656-1.823,41.267,1.003,61.851
		c0.925,6.734-0.742,8.021-6.94,5.588c-4.302-1.688-8.499-3.644-13.454-4.713c1.121,1.211,2.083,2.639,3.39,3.595
		c6.172,4.513,12.197,9.291,18.71,13.26c32.199,19.619,55.795,46.684,70.48,81.343c5.969,14.086,11.084,28.536,16.458,42.869
		c0.925,2.467,0.98,5.248,1.808,7.764c3.161,9.623-1.431,15.637-8.241,22.018c-15.587,14.604-33.034,12.199-51.146,7.588
		c-20.809-5.298-39.844-14.986-59.242-23.777c-78.416-35.537-157.051-70.561-237.555-101.195
		c-27.473-10.454-55.458-18.92-84.877-21.831c-31.561-3.123-61.814,0.915-90.099,16.122c-4.983,2.68-10.086,5.145-15.208,7.551
		c-1.715,0.807-3.66,1.123-5.5,1.664C89.773,848.436,89.241,847.981,88.709,847.526z"/>
</g>
</svg>
