<?xml version="1.0" encoding="utf-8"?>
<!-- Generator: Adobe Illustrator 16.0.0, SVG Export Plug-In . SVG Version: 6.00 Build 0)  -->
<!DOCTYPE svg PUBLIC "-//W3C//DTD SVG 1.1//EN" "http://www.w3.org/Graphics/SVG/1.1/DTD/svg11.dtd">
<svg version="1.1" id="Layer_1" xmlns="http://www.w3.org/2000/svg" xmlns:xlink="http://www.w3.org/1999/xlink" x="0px" y="0px"
	 width="756px" height="1057px" viewBox="0 0 756 1057" enable-background="new 0 0 756 1057" xml:space="preserve">
<g>
	<path fill-rule="evenodd" fill="white" clip-rule="evenodd" d="M299.059,59.896c5.47-2.962,10.959-5.888,16.4-8.903
		c2.243-1.243,4.851-2.259,6.48-4.097c6.238-7.036,13.807-10.146,23.15-9.16c6.518,0.688,12.558,0.688,18.254-4.152
		c5.266-4.475,11.839-4.244,17.584,0.09c5.575,4.207,10.812,8.869,16.456,12.974c1.53,1.113,4.143,1.607,6.01,1.211
		c4.21-0.892,8.283-2.461,12.371-3.873c1.542-0.532,3.495-0.999,4.362-2.163c3.73-5.007,8.83-5.811,14.315-4.854
		c7.506,1.31,14.914,3.177,22.402,4.605c2.373,0.453,4.95,0.724,7.293,0.299c14.5-2.627,26.883,0.232,35.467,13.222
		c2.022,3.06,4.519,4.439,8.234,4.538c4.224,0.111,8.428,0.912,12.641,1.413c-0.025,0.407-0.051,0.815-0.077,1.222
		c-4.096,0-8.192,0-12.289,0c2.997,4.686,7.249,6.873,12.075,7.81c9.126,1.771,18.316,3.208,27.445,4.963
		c2.313,0.445,4.496,1.569,6.434,3.324c-3.597-1.001-7.194-2.003-11.82-3.291c7.247,8.916,17.324,10.22,25.439,15.001
		c1.253,0.738,2.921,1.253,3.623,2.362c3.27,5.154,6.277,10.475,9.337,15.759c0.204,0.351,0.064,0.901,0.106,1.845
		c-1.491-1.889-2.689-3.409-3.889-4.929c-0.345,0.118-0.69,0.236-1.035,0.354c1.246,4.598,2.674,9.156,3.696,13.803
		c1.604,7.292,2.934,14.646,4.384,21.972c0.84,4.245,1.992,8.458,2.426,12.744c0.313,3.08,0.7,6.894-0.762,9.258
		c-3.221,5.212-1.705,9.964-0.787,15.175c2.25,12.767,2.534,25.479-2.28,37.922c-0.661,1.709,0.144,4.176,0.735,6.152
		c7.021,23.432,14.374,46.767,21.106,70.28c3.082,10.765,2.951,21.774-1.645,32.322c-5.579,12.803,1.028,22.191,10.011,29.195
		c19.521,15.219,29.883,36.743,41.688,57.303c3.635,6.331,5.328,13.561,3.861,21.209c-1.725,8.996-7.035,14.85-15.605,17.008
		c-6.553,1.65-13.443,2.192-20.223,2.641c-6.507,0.43-9.074,3.008-8.18,9.714c0.551,4.124,1.068,8.289,2.118,12.299
		c1.726,6.594,0.06,11.866-5.362,15.864c-3.983,2.938-4.81,5.735-2.046,10.457c5.661,9.673,4.891,13.964-2.29,22.546
		c-1.175,1.405-2.348,2.822-3.637,4.12c-4.805,4.842-5.715,10.539-4.386,17.053c2.025,9.922,3.317,20.004,5.609,29.858
		c3.153,13.558-10.794,33.122-22.524,37.938c-13.132,5.392-26.95,7.198-40.685,9.742c-13.087,2.424-26.146,5.033-39.138,7.922
		c-2.499,0.555-5.916,2.372-6.541,4.354c-0.558,1.767,1.65,5.165,3.543,6.787c3.858,3.306,3.921,6.716,1.603,10.584
		c-1.535,2.562-3.59,4.811-5.119,7.375c-2.715,4.553-5.565,9.081-7.686,13.915c-1.891,4.314-1.493,8.486,2.192,12.385
		c4.439,4.697,6.814,10.394,6.501,17.247c-0.433,9.477,7.427,15.507,9.904,24.075c9.994-3.508,18.413-1.563,27.046,2.743
		c11.001,5.488,22.333,10.55,33.972,14.462c12.737,4.281,19.258,12.987,19.263,25.532c0.006,13.948,4.606,26.046,11.087,37.784
		c13.021,23.583,26.543,46.897,39.2,70.673c15.378,28.887,28.019,58.834,34.703,91.169c3.957,19.145-2.155,27.473-17.699,36.896
		c-11.614,7.041-23.899,7.643-37.464,4.595c-36.996-8.313-70.254-25.685-104.395-40.972
		c-75.077-33.617-150.292-66.901-227.208-96.172c-29.655-11.285-59.802-20.609-91.565-23.842
		c-33.961-3.456-66.452,0.976-96.841,17.37c-5.126,2.766-10.355,5.356-15.635,7.816c-1.845,0.859-3.987,1.081-7.146,1.889
		c0.715-3.081,0.875-5.193,1.682-7.021c6.109-13.844,12.417-27.6,18.503-41.454c2.103-4.788,3.387-9.952,5.666-14.644
		c12.523-25.786,30.523-48.016,46.772-71.375c7.103-10.211,14.569-20.169,21.848-30.257c0.971-1.346,2.117-2.674,2.663-4.197
		c2.321-6.478,4.447-13.026,6.756-19.879c-4.491-3.635-3.929-3.477-1.294-12.878c3.987-14.228,7.104-28.698,10.574-43.069
		c0.469-1.94,0.755-3.928,1.272-5.854c2.546-9.498,5.13-11.478,15.097-11.685c6.951-0.145,9.607-2.38,10.309-9.388
		c0.492-4.915,0.667-9.888,0.575-14.827c-0.077-4.1,2.884-5.186,5.579-6.821c6.787-4.119,13.663-8.122,20.167-12.654
		c1.884-1.313,3.324-4.134,3.757-6.485c1.082-5.883,1.339-11.911,2.188-17.844c0.479-3.35-0.958-5.235-3.6-6.926
		c-3.043-1.945-5.862-4.244-8.75-6.428c-0.659-0.499-1.096-1.363-1.806-1.71c-17.692-8.635-24.267-27.425-37.111-40.462
		c-3.67-3.726-8.341-6.446-12.199-10.011c-3.575-3.304-6.715-7.087-9.967-10.729c-1.215-1.362-2.29-2.87-3.289-4.402
		c-5.694-8.732-10.99-17.749-20.807-22.82c-1.861-0.961-2.93-3.454-4.365-5.239c4.135,2.486,8.269,4.971,12.404,7.457
		c0.398-0.51,0.796-1.02,1.194-1.53c-2.9-2.777-5.411-6.221-8.782-8.192c-6.859-4.01-11.345-8.997-10.97-17.397
		c0.229-5.116,0.156-10.245,0.355-15.363c0.136-3.494-0.883-5.967-4.891-6.81c-0.908,15.222,2.793,28.902,10.522,41.571
		c-2.599-4.097-6.465-7.891-7.532-12.354c-2.185-9.135-2.786-18.642-4.229-27.966c-0.336-2.167-0.948-4.607-2.267-6.255
		c-8.053-10.066-8.238-15.803,0.423-25.195c2.389-2.591,2.929-4.794,2.144-7.965c-1.199-4.841-1.959-9.792-3.215-14.616
		c-0.373-1.435-1.563-2.867-2.752-3.847c-9.977-8.217-11.693-13.544-7.09-25.668c2.72-7.163,2.875-13.83-0.907-20.613
		c-1.857-3.332-3.205-6.945-4.826-10.41c-2.998-6.407-1.261-12.443,1.902-18.074c0.872-1.552,3.42-2.675,5.362-2.991
		c2.892-0.469,4.255-1.777,5.198-4.454c2.43-6.897,5.246-13.658,7.704-20.545c0.56-1.568,0.801-3.587,0.324-5.132
		c-2.928-9.484,1.397-16.712,7.035-23.529c3.97-4.799,8.397-9.249,12.043-14.272c1.116-1.538,0.755-4.544,0.329-6.733
		c-1.552-7.972-0.359-14.819,6.437-20.165c1.393-1.095,2.661-3.389,2.618-5.095c-0.235-9.305,5.82-14.637,12.271-19.361
		c5.009-3.668,9.126-7.118,10.053-13.933c0.319-2.344,4.192-5.138,6.986-6.042c9.188-2.971,16.439-8.267,22.861-15.355
		c3.978-4.39,8.765-8.156,13.597-11.636c6.042-4.352,10.762-9.381,12.188-16.935c0.122-0.646,0.264-1.408,0.676-1.863
		c5.272-5.823,9.625-12.303,14.189-18.656c1.492-2.076,6.995-2.007,10.535-1.649c2.958,0.299,6.185,1.917,8.489,3.891
		c5.055,4.328,10.804,5.045,16.79,3.919c2.889-0.543,5.479-2.678,8.202-4.087c-0.853,1.255-1.702,2.507-2.667,3.929
		c15.165,1.835,16.705,1.061,21.111-10.855c-2.24,0.603-4.169,0.923-5.939,1.639C307.462,56.158,303.276,58.064,299.059,59.896z
		 M396.508,48.996c-4.856-5.619-10.576-9.178-17.222-11.039c-1.262-0.354-4.259,1.117-4.396,2.049
		c-0.271,1.844,0.267,4.749,1.579,5.72C382.199,49.973,388.792,50.967,396.508,48.996z M581.149,176.582
		c-6.979,11.632,1.901,23.788-1.839,35.533C585.069,200.503,584.269,188.594,581.149,176.582z M123.103,288.043
		c0-7.71,0-14.497,0-21.604C115.669,271.958,115.632,277.469,123.103,288.043z M576.962,131.569
		c-0.496,0.156-0.992,0.311-1.487,0.467c2.074,7.559,4.148,15.117,6.224,22.676c0.666-0.2,1.333-0.4,1.999-0.6
		C581.452,146.599,579.207,139.084,576.962,131.569z M272.962,65.655c-5.837-6.345-12.104-6.611-16.601-1.924
		C261.333,64.307,266.875,64.95,272.962,65.655z M133.113,368.676c-4.359,6.75-4.432,10.299,0,14.167
		C133.113,377.963,133.113,373.89,133.113,368.676z"/>
	
</g>
</svg>
