<?xml version="1.0" encoding="utf-8"?>
<!-- Generator: Adobe Illustrator 16.0.0, SVG Export Plug-In . SVG Version: 6.00 Build 0)  -->
<!DOCTYPE svg PUBLIC "-//W3C//DTD SVG 1.1//EN" "http://www.w3.org/Graphics/SVG/1.1/DTD/svg11.dtd">
<svg version="1.1" id="Layer_1" xmlns="http://www.w3.org/2000/svg" xmlns:xlink="http://www.w3.org/1999/xlink" x="0px" y="0px"
	 width="756px" height="1057px" viewBox="0 0 756 1057" enable-background="new 0 0 756 1057" xml:space="preserve">
<g>
	
	<path fill-rule="evenodd" fill="white" clip-rule="evenodd" d="M226.915,511.386c-0.991-1.278-1.763-2.273-2.834-3.655
		c-1.162,1.547-2.097,2.793-3.445,4.588c-3.403-2.554-6.847-5.075-10.195-7.718c-0.52-0.41-0.933-1.425-0.835-2.077
		c2.006-13.415-3.835-25.419-6.789-37.931c-0.647-2.741-1.607-5.445-2.763-8.014c-0.655-1.456-2-2.601-3.905-4.968
		c3.717-16.208-4.456-30.841-12.425-45.566c-1.335-2.467-1.77-5.441-3.21-7.824c-1.125-1.861-0.149-6.287-4.829-4.873
		c-0.145,0.044-0.88-1.938-1.373-2.96c-3.638-7.55-7.284-15.096-10.927-22.644c-0.483,0.138-0.967,0.276-1.45,0.414
		c-0.513,1.075-1.025,2.151-1.946,4.084c-3.403-6.467-6.458-12.274-9.687-18.409c-1.023,0.839-1.864,1.528-3.041,2.494
		c-7.789-15.445-11.618-31.754-12.313-50.125c-0.918,1.523-1.241,1.987-1.489,2.488c-0.291,0.589-0.517,1.21-1.924,1.771
		c0.314-5.136-0.059-10.427,1.056-15.383c6.226-27.689,14.399-54.415,29.968-78.88c13.752-21.611,28.763-41.582,48.895-57.525
		c1.069-0.847,1.528-2.69,1.879-4.164c0.486-2.036,0.6-4.16,0.954-6.86c2.201,1.013,3.762,1.731,5.83,2.683
		c18.652-24.812,47.598-32.38,74.445-43.237c37.161-15.027,75.56-25.753,115.375-31.449c38.812-5.552,77.102-3.452,115.074,5.753
		c19.24,4.664,38.947,8.377,56.553,17.786c36.033,19.259,62.635,47.375,75.578,86.683c7.17,21.774,5.023,43.546-3.188,65.055
		c-1.996,5.228-3.834,10.196-7.029,14.759c-0.513,0.733,0.077,2.883,0.852,3.772c7.537,8.646,15.272,17.119,22.795,25.776
		c0.826,0.95,1.278,2.962,0.861,4.101c-0.903,2.47-2.683,4.608-3.7,7.05c-0.533,1.281-0.213,2.917-0.344,5.869
		c-3.151,3.36-7.422,8-11.791,12.545c-3.842,3.997-4.521,8.405-1.914,13.25c11.746,21.816,20.641,45.134,35.225,65.476
		c6.153,8.582,10.556,17.978,8.235,29.396c-2.153,10.592-6.936,15.479-17.69,16.1c-4.296,0.248-8.597,0.403-12.699,0.591
		c-0.606,6.489-0.782,12.624-1.852,18.6c-1.029,5.753-3.077,11.205-8.334,14.847c-3.033,2.101-3.453,4.862-0.3,7.394
		c4.635,3.721,4.918,8.131,2.876,13.408c-4.44,11.475-6.007,23.035-1.215,35c3.761,9.393,2.085,18.612-2.408,27.485
		c-11.229,22.177-29.445,34.036-54.013,35.487c-17.78,1.05-35.643,0.62-53.445,1.388c-17.89,0.772-33.884,6.547-46.582,19.832
		c-3.683,3.854-7.704,7.396-11.233,11.381c-4.805,5.426-3.985,10.004,1.925,13.635c14.757,9.069,29.464,18.22,44.236,27.263
		c4.399,2.692,8.88,5.27,13.446,7.665c9.336,4.898,13.197,11.699,10.052,21.802c-3.047,9.786-7.258,19.308-11.927,28.45
		c-2.245,4.398-1.383,5.842,2.362,7.964c25.782,14.608,47.609,33.794,63.855,58.608c19.033,29.072,32.243,60.779,39.937,94.746
		c1.507,6.65-0.78,11.555-5.265,16.19c-14.615,15.109-32.061,20.704-52.315,14.759c-16.093-4.724-32.466-9.214-47.675-16.104
		c-90.416-40.965-180.932-81.668-273.372-117.926c-30.717-12.048-61.677-23.307-94.385-28.962
		c-43.851-7.581-85.924-3.996-125.377,18.481c-6.129,3.491-13.104,5.577-19.823,7.923c-3.986,1.391-6.908-0.257-6.168-4.82
		c0.999-6.163,1.799-12.594,4.231-18.245c6.737-15.656,17.546-28.689,29.269-40.807c7.608-7.865,15.994-15.026,24.413-22.046
		c13.162-10.975,26.45-21.821,40.104-32.169c4.661-3.532,10.694-5.201,15.881-8.112c2.353-1.321,4.541-3.327,6.129-5.513
		c1.731-2.382,2.721-5.313,3.966-8.036c6.795-14.855,14.052-29.526,20.117-44.675c2.479-6.192,5.367-11.028,11.553-13.328
		c4.997-1.858,7.357-5.581,9.437-10.198c2.651-5.886,6.425-11.259,9.207-17.094c2.397-5.03,4.989-10.245,5.908-15.648
		c2.49-14.624,9.036-25.195,24.427-28.602c1.615-0.358,3.034-1.604,4.544-2.438c-1.2-1.228-2.394-2.462-3.602-3.683
		c-0.697-0.705-1.478-1.335-2.114-2.09C230.527,508.227,230.542,508.214,226.915,511.386z"/>
</g>
</svg>
