<?xml version="1.0" encoding="utf-8"?>
<!-- Generator: Adobe Illustrator 16.0.0, SVG Export Plug-In . SVG Version: 6.00 Build 0)  -->
<!DOCTYPE svg PUBLIC "-//W3C//DTD SVG 1.1//EN" "http://www.w3.org/Graphics/SVG/1.1/DTD/svg11.dtd">
<svg version="1.1" id="Layer_1" xmlns="http://www.w3.org/2000/svg" xmlns:xlink="http://www.w3.org/1999/xlink" x="0px" y="0px"
	 width="756px" height="1057px" viewBox="0 0 756 1057" enable-background="new 0 0 756 1057" xml:space="preserve">
<g>
	<path fill-rule="evenodd" fill="white" clip-rule="evenodd" d="M48.337,790.174c-0.09-1.311-0.298-1.981-0.152-2.563
		c3.69-14.679,6.878-29.515,11.342-43.956c2.62-8.476,7.338-16.294,11.008-24.455c3.467-7.707,6.661-15.539,10.219-23.203
		c5.862-12.627,12.686-24.745,24.154-33.152c10.466-7.672,21.813-14.16,32.137-22.006c8.451-6.422,16.033-14.003,23.812-21.273
		c0.961-0.897,1.139-3.07,1.027-4.604c-0.616-8.452,1.566-16.001,5.933-23.28c5.479-9.134,10.192-18.724,15.527-27.947
		c1.128-1.951,3.269-3.842,5.366-4.617c8.729-3.226,17.62-6.016,26.445-8.963c-0.898-3.592-1.79-7.157-2.807-11.225
		c-6.412-1.372-11.838-4.441-11.46-12.902c-6.483-0.9-11.013-4.158-13.743-9.873c-0.38-0.795-1.285-1.675-2.103-1.874
		c-10.352-2.511-16.345-10.656-23.173-17.731c-3.39-3.512-3.917-7.129-1.818-11.786c3.524-7.821-3.17-20.25-11.983-22.55
		c0,3.346,0,6.61,0,9.874c-0.281,0.016-0.562,0.032-0.843,0.047c-0.154-1.985-0.052-4.034-0.532-5.937
		c-0.521-2.066-1.607-3.986-2.399-5.989c-0.846-2.138-1.848-4.245-2.407-6.46c-1.287-5.1-2.346-10.257-3.561-15.67
		c0.398-0.528,2.156-1.978,1.897-2.651c-1.677-4.359-3.794-8.548-6.156-13.631c-0.63,2.371-1.188,4.465-2.121,7.975
		c0-3.792-0.585-6.393,0.107-8.592c2.245-7.129,0.363-12.396-5.533-16.967c-5.59-4.334-7.953-10.464-7.656-17.632
		c0.19-4.603,0.036-9.22,0.036-14.592c1.116,1.802,1.809,2.92,2.645,4.271c0.504-0.663,1.08-1.096,1.014-1.379
		c-2.642-11.316,2.431-20.317,9.301-28.283c3.235-3.75,3.518-7.742,4.102-11.989c0.113-0.819-0.193-1.755,0.089-2.483
		c2.774-7.134-0.107-12.93-3.882-18.793c-3.088-4.797-3.948-9.786-1.065-15.53c1.946-3.878,1.787-8.763,2.994-13.078
		c1.165-4.167,1.918-8.531,7.817-9.492c2.693-0.438,4.955-3.52,8.062-4.794c-2.806,3.2-5.612,6.4-8.418,9.601
		c0.334,0.384,0.669,0.768,1.003,1.152c1.574-0.662,3.148-1.324,4.945-2.08c1.194,0.881,2.486,1.834,3.778,2.787
		c0.301-0.16,0.603-0.32,0.903-0.48c-0.626-1.581-1.252-3.162-1.378-3.479c1.384-5.014,2.544-9.219,3.831-13.882
		c-1.553,0.229-3.344,0.494-6.543,0.966c5.108-2.787,9.21-4.639,12.836-7.172c1.728-1.206,3.087-3.558,3.67-5.654
		c1.198-4.304,1.441-8.876,2.661-13.172c1.798-6.338,5.417-11.527,11.82-13.98c2.955-1.132,3.477-2.977,3.339-5.755
		c-0.121-2.437,0.517-4.917,0.343-7.344c-0.11-1.542-1.983-3.39-1.538-4.471c3.773-9.159,7.527-18.363,12.046-27.163
		c3.03-5.899,8.226-9.879,14.805-11.955c1.581-0.499,3.12-2.306,3.923-3.894c3.721-7.357,7.666-14.046,15.807-17.877
		c5.128-2.413,9.089-7.219,13.776-10.677c9.099-6.711,19.057-10.816,30.717-9.737c1.484,0.137,3.292-1.009,4.635-1.992
		c3.612-2.644,6.853-5.837,10.615-8.222c4.321-2.74,8.733-1.885,13.771-0.592c7.241,1.857,14.421,5.129,22.756,1.434
		c6.936-3.074,15.081-3.4,22.667-5.046c1.296-0.281,2.93-0.745,3.642-1.697c4.107-5.494,9.779-7.679,16.285-8.662
		c2.151-0.325,4.684-1.134,6.13-2.614c8.024-8.209,18.334-9.763,28.607-8.4c8.572,1.137,16.821,4.853,25.13,7.675
		c1.15,0.391,1.817,2.208,2.707,3.365c0.148-0.562,0.296-1.125,0.444-1.687c7.178-0.682,14.881,0.032,21.396-2.414
		c7.434-2.792,13.533,2.902,20.495,1.271c-1.242,0.412-2.484,0.825-3.925,1.303c0.427,0.374,0.618,0.683,0.795,0.675
		c3.158-0.148,6.329-0.587,9.468-0.42c1.991,0.106,3.934,1.104,5.898,1.702c-0.963,1.721-1.925,3.443-2.982,5.335
		c1.437,0.488,3.357,1.142,5.565,1.892c1.062-1.287,2.187-2.65,3.553-4.305c-0.705-1.026-1.455-2.116-2.807-4.083
		c4.878,2.524,8.747,4.526,13.558,7.015c-2.081,0-3.104,0-4.126,0c2.501,1.386,3.47,6.99,7.908,2.922
		c0.237-0.217,1.743,0.714,2.485,1.322c5.607,4.585,11.121,9.286,16.793,13.788c1.076,0.854,2.702,1.085,4.117,1.426
		c5.814,1.399,11.771,2.345,17.434,4.194c5.552,1.813,9.809,5.45,11.836,11.348c0.379,1.101,2.201,2.142,3.516,2.397
		c2.925,0.568,6.045,0.254,8.908,0.989c2.821,0.724,5.823,1.81,8.026,3.614c3.146,2.576,5.636,5.952,8.353,8.928
		c-1.099,0.228-2.883,0.598-4.666,0.968c-0.071,0.446-0.143,0.893-0.213,1.339c3.683,0.916,7.365,1.832,11.199,2.785
		c-0.553,7.833,3.271,13.186,8.124,18.412c1.947,2.097,2.138,5.818,3.147,8.793c0.61,1.798,0.933,3.796,1.943,5.338
		c5.007,7.637,10.158,15.18,15.343,22.698c3.254,4.719,3.7,9.89,2.748,15.307c-0.807,4.591-1.914,9.135-2.572,13.744
		c-0.389,2.715-2.235,5.73,1.277,8.198c0.514,0.361-0.873,3.843-1.765,5.696c-1.431,2.976-3.388,5.708-4.698,8.728
		c-0.536,1.234,0.034,2.948,0.144,5.4c-7.451,1.867-7.99,8.026-8.069,15.33c-0.076,7.139-6.117,10.607-11.893,13.542
		c-1.445,0.734-3.054,1.148-4.366,1.629c2.289,6.756,4.832,13.254,6.579,19.959c0.627,2.406,0.067,5.742-1.207,7.917
		c-6.565,11.213-4.759,21.331,5.239,30.407c8.251,7.49,17.108,14.686,23.746,23.484c9.074,12.028,16.818,25.163,24.168,38.361
		c6.963,12.504-1.992,28.495-16.474,30.281c-4.364,0.538-8.987,0.035-13.358-0.742c-12.151-2.159-14.357-1.146-16.944,10.712
		c-1.289,5.908-1.125,12.123-2.196,18.095c-0.477,2.663-1.826,5.643-3.737,7.486c-5.938,5.729-6.283,7.029-1.778,13.871
		c2.79,4.238,4.647,8.542,3.404,14.016c-2.809,12.364-0.666,23.798,7.601,33.81c1.469,1.779,2.351,4.029,3.667,5.949
		c7.44,10.849,5.053,21.541-0.702,32.005c-3.093,5.622-8.109,8.727-14.655,8.968c-3.328,0.123-6.7,0.457-9.985,0.091
		c-16.41-1.828-32.454,2.322-48.694,3.202c-6.412,0.347-12.873,5.104-18.757,8.75c-10.497,6.505-18.474,15.597-24.695,26.735
		c1.604,0.989,2.918,1.963,4.363,2.664c16.3,7.907,32.53,15.966,48.969,23.574c9.646,4.464,10.373,4.854,11.239,14.955
		c-2.686-1.027-5.079-1.942-7.472-2.856c-5.514-2.106-10.66-0.05-13.27,5.242c-1.711,3.468,1.11,3.56,3.079,4.034
		c5.815,1.403,11.804,2.229,17.477,4.054c18.776,6.037,25.763,24.954,16.593,42.675c-5.244,10.133-9.443,20.807-14.181,31.386
		c3.572,1.418,7.114,2.816,10.649,4.229c2.955,1.182,4.157,3.287,3.057,6.356c-1.568,4.372-2.994,8.824-4.962,13.017
		c-2.83,6.029-2.756,11.137,0.878,17.282c14.636,24.757,26.042,50.926,32.201,79.203c1.278,5.866-0.409,10.297-4.392,14.49
		c-13.585,14.307-29.66,18.048-48.752,13.509c-22.09-5.252-42.402-14.717-62.857-24.032
		c-76.232-34.717-152.783-68.692-230.922-98.963c-27.056-10.48-54.425-19.8-83.272-24.191
		c-37.354-5.687-73.057-1.794-106.381,17.232c-3.604,2.059-7.431,3.755-11.255,5.383C52.11,789.796,50.3,789.814,48.337,790.174z
		 M126.799,397.823c-0.314-2.04-0.649-4.076-0.938-6.12c-0.414-2.925-0.877-5.794-4.587-6.556
		c-0.984,9.618,2.562,16.454,9.584,18.583c-1.452-2.086-2.831-4.066-4.194-6.033c1.884,1.518,3.767,3.036,5.651,4.554
		c0.371-0.351,0.743-0.702,1.114-1.053c-1.079-1.6-2.158-3.201-3.719-5.515c2.388,0.565,4.163,0.985,5.937,1.406
		c0.31-0.316,0.619-0.632,0.928-0.948c-2.475-2.148-4.95-4.296-7.468-6.482C128.268,392.626,127.533,395.225,126.799,397.823z
		 M191.898,196.191c0.053,0.909,0.106,1.818,0.247,4.202c5.402-6.24,9.995-11.544,14.587-16.848
		c-0.023-0.082-0.046-0.163-0.07-0.245c-4.981,4.358-9.963,8.716-14.945,13.075c0-2.274,0-4.549,0-5.367
		c5.911-4.181,10.81-7.646,15.709-11.11c-6.479-2.976-7.573,4.515-12.528,5.547c5.75-7.105,5.784-7.019,12.823-9.773
		c1.184-0.463,2.074-1.956,2.803-3.153c0.248-0.407-0.475-1.995-0.655-1.978c-1.236,0.115-2.533,0.331-3.643,0.863
		c-1.634,0.784-3.205,1.754-4.669,2.828c-7.405,5.429-11.48,12.854-13.433,21.976C189.743,196.207,190.814,196.207,191.898,196.191z
		 M259.301,131.244c-12.803,3.288-22.833,10.479-21.854,17.149c3.699-3.029,6.874-5.628,9.02-7.386
		c4.054-0.792,7.267-1.084,10.249-2.074C262.449,137.031,262.395,136.867,259.301,131.244z M412.038,100.667
		c-2.215-0.496-3.814-1.049-5.448-1.184c-4.611-0.38-9.235-0.685-13.858-0.776c-0.839-0.017-1.699,1.124-2.55,1.73
		c0.669,0.533,1.867,1.588,1.931,1.523c3.123-3.163,6.517-0.256,9.64-0.193c5.017,0.101,10.789-0.455,13.233,5.185
		c3.475-0.819,6.329-1.492,10.839-2.555c-5.439-3.062-9.737-5.48-14.034-7.899c-0.249,0.35-0.497,0.699-0.746,1.048
		C411.327,98.434,411.609,99.321,412.038,100.667z M177.902,230.14c-6.518,3.075-9.421,8.496-11.139,16.075
		c1.88-1.126,2.781-1.666,3.019-1.809c-0.278,2.963-0.556,5.931-0.834,8.898c0.684,0.072,1.368,0.144,2.052,0.216
		c0.467-4.155,0.891-8.316,1.443-12.46c0.1-0.745,0.611-1.917,1.14-2.047C178.569,237.787,175.94,232.869,177.902,230.14z
		 M124.406,373.417c4.036-5.668,8.328-11.696,12.839-18.031C127.336,357.265,120.303,366.625,124.406,373.417z M136.854,294.06
		c-3.721,4.163-2.429,8.343-0.157,11.936c2.002,3.166,4.811,6.095,9.67,5.325C140.748,306.841,135.539,302.32,136.854,294.06z
		 M611.012,214.013c0.579-0.491,1.158-0.981,1.737-1.472c-3.543-4.541-7.085-9.082-10.628-13.623
		c-1.035,1.801-1.034,3.071-0.876,4.321C602.016,209.337,608.934,209.22,611.012,214.013z M142.253,320.306
		c-3.63-6.169-6.577-11.178-9.75-16.569C131.342,311.756,133.938,316.577,142.253,320.306z M298.87,120.76
		c-0.108-0.504-0.217-1.008-0.326-1.513c-4.464-1.944-10.397-0.118-12.679,4.307C290.454,122.568,294.662,121.665,298.87,120.76z
		 M353.336,113.934c4.203-3.006,8.007-5.727,12.109-8.661C358.113,104.972,354.354,107.661,353.336,113.934z M319.191,120.655
		c0.225,0.996,0.449,1.991,0.674,2.987c3.875-1.365,7.749-2.73,11.624-4.095c-0.204-0.715-0.407-1.43-0.61-2.145
		C326.983,118.487,323.087,119.571,319.191,120.655z M134.134,376.579c1.072-3.672,2.145-7.345,3.459-11.847
		C132.226,367.649,131.083,370.953,134.134,376.579z M314.785,122.675c0.233-0.685,0.465-1.369,0.698-2.054
		c-2.943-1.049-5.886-2.097-8.829-3.146c-0.249,0.698-0.499,1.395-0.748,2.092C308.243,122.275,311.212,123.284,314.785,122.675z
		 M434.148,115.83c-0.938-5.127-4.098-7.039-7.57-8.563c-0.143-0.063-1.001,1.508-1.525,2.318c-0.128,0.529-0.256,1.059-0.385,1.588
		C430.962,107.695,429.624,115.112,434.148,115.83z M205.843,526.71c1.162,4.981,3.153,7.86,8.156,7.83
		C211.507,532.147,209.015,529.755,205.843,526.71z M619.242,237.859c4.168-10.943,4.168-10.943,0-13.886
		C619.242,228.355,619.242,232.552,619.242,237.859z M157.181,290.694c-3.828,0-7.521,0-12.049,0
		C149.688,294.14,154.529,293.899,157.181,290.694z M464.107,105.726c0.242,0.708,0.484,1.417,0.727,2.126
		c3.495-1.479,6.989-2.958,10.484-4.436c-0.225-0.564-0.448-1.127-0.673-1.691C471.133,103.059,467.62,104.393,464.107,105.726z
		 M138.776,280.046c-1.729,5.733,0.062,9.043,4.864,10.02C142.118,286.931,140.587,283.777,138.776,280.046z M228.941,157.967
		c-0.76-0.499-1.52-0.998-2.28-1.496c-1.283,1.899-2.566,3.799-3.85,5.698c0.93,0.332,2.468,1.177,2.69,0.913
		C226.817,161.52,227.828,159.7,228.941,157.967z M143.403,323.428c-4.414,3.3-5.228,7.061-2.286,10.944
		C141.881,330.714,142.573,327.401,143.403,323.428z M349.304,117.35c-3.55,0-7.023,0-10.497,0
		C343.7,119.714,348.086,119.527,349.304,117.35z M218.908,159.165c0.381,0.425,0.762,0.851,1.142,1.276
		c2.057-1.825,4.113-3.65,7.062-6.267C221.229,153.043,220.279,156.383,218.908,159.165z M438.341,101.297
		c-0.234-0.355-0.469-0.711-0.703-1.067c-1.807,0.693-3.819,1.121-5.28,2.257c-0.384,0.299,0.94,2.793,1.969,5.624
		C436.183,104.96,437.262,103.129,438.341,101.297z M265.341,135.066c0.026,0.428,0.053,0.856,0.079,1.284
		c4.207-0.194,8.414-0.388,12.621-0.582c-0.052-0.683-0.103-1.367-0.155-2.05C273.705,134.168,269.523,134.617,265.341,135.066z"/>
</g>
</svg>
