<?xml version="1.0" encoding="utf-8"?>
<!-- Generator: Adobe Illustrator 16.0.0, SVG Export Plug-In . SVG Version: 6.00 Build 0)  -->
<!DOCTYPE svg PUBLIC "-//W3C//DTD SVG 1.1//EN" "http://www.w3.org/Graphics/SVG/1.1/DTD/svg11.dtd">
<svg version="1.1" id="Layer_1" xmlns="http://www.w3.org/2000/svg" xmlns:xlink="http://www.w3.org/1999/xlink" x="0px" y="0px"
	 width="756px" height="1057px" viewBox="0 0 756 1057" enable-background="new 0 0 756 1057" xml:space="preserve">
<g>
	<path fill-rule="evenodd" fill="white" clip-rule="evenodd" d="M132.023,856.994c2.584-6.975,4.614-14.218,7.847-20.876
		c15.298-31.506,21.594-64.867,21.246-99.651c-0.111-11.088,0.213-21.93,6.479-31.775c1.002-1.575,0.285-4.609-0.326-6.773
		c-1.576-5.577-3.402-11.096-5.43-16.524c-0.594-1.59-2.081-3.878-3.363-4.021c-18.322-2.046-29.433-13.504-38.001-28.46
		c-0.826-1.441-1.785-2.811-2.725-4.184c-0.166-0.242-0.543-0.34-1.068-0.648c-4.624,3.291-9.399,6.563-14.04,10.018
		c-13.094,9.747-27.858,16.223-42.894,22.218c-12.553,5.005-24.133,2.459-35.29-4.158c-2.852-1.691-3.977-4.069-2.821-7.157
		c1.103-2.948,2.285-5.927,3.893-8.616c14.715-24.606,30.422-48.508,48.157-71.114c16.242-20.703,31.585-42.11,47.377-63.168
		c2.795-3.727,5.938-7.193,8.767-10.896c2.882-3.771,4.165-7.946,2.374-12.649c-0.884-2.32-1.464-4.583-4.934-4.555
		c-1.358,0.011-3.063-1.902-4.049-3.327c-11.66-16.847-23.408-33.64-34.644-50.768c-2.445-3.728-2.964-8.72-4.364-13.131
		c-1.128-3.553-1.518-7.59-3.491-10.583c-13.011-19.736-26.411-39.216-39.575-58.853c-3.893-5.808-7.572-11.77-11.114-17.799
		c-10.443-17.774-14.652-37.138-12.894-57.514c0.617-7.151,3.508-14.18,5.86-21.094c9.767-28.708,19.971-57.237,35.543-83.49
		c6.149-10.367,12.995-20.099,21.943-28.328c15.438-14.197,30.139-29.244,46.12-42.789c19.048-16.144,42.411-24.872,65.103-34.466
		c20.557-8.692,41.239-17.441,63.597-20.182c12.968-1.59,26.357-3.04,39.178-1.464c9.828,1.208,20.022,5.812,28.391,11.396
		c33.675,22.47,66.479,46.2,97.141,72.752c2.392,2.07,5.789,2.941,8.593,4.583c2.249,1.317,4.627,2.653,6.4,4.505
		c12.327,12.877,24.409,25.99,36.788,38.817c5.658,5.863,11.76,11.305,17.754,16.836c4.557,4.205,10.236,5.716,16.205,5.313
		c34.063-2.298,68.358-3.35,101.77-10.757c28.417-6.3,56.304-14.963,84.544-22.111c4.532-1.147,10.035-0.894,14.478,0.569
		c7.918,2.608,10.162,11.652,4.614,17.803c-3.958,4.388-8.53,8.688-13.673,11.462c-22.998,12.407-46.29,24.269-69.499,36.282
		c-4.096,2.12-8.431,3.807-12.38,6.157c-1.16,0.691-2.233,3.222-1.873,4.49c1.819,6.396,4.096,12.665,6.27,18.958
		c2.174,6.295,3.241,12.5,0.202,18.937c-0.617,1.306,0.101,3.475,0.676,5.076c4.809,13.393,7.429,27.052,4.066,41.153
		c-0.935,3.919-2.887,7.927-5.423,11.038c-2.39,2.93-3.369,5.588-3.413,9.309c-0.187,15.64-5.884,28.168-22.088,34.991
		c3.431,2.753,6.113,5.172,9.055,7.218c10.651,7.406,22.077,13.875,31.917,22.223c11.758,9.977,22.692,21.072,32.952,32.601
		c4.299,4.832,6.714,11.794,8.61,18.196c2.524,8.523-0.56,15.462-8.731,18.996c-6.258,2.707-13.285,4.131-20.109,4.909
		c-8.983,1.023-11.293,3.568-8.712,12.271c1.939,6.543,3.797,13.129,6.175,19.516c1.189,3.194,3.083,6.314,5.327,8.885
		c3.754,4.303,3.86,8.561,1.317,13.313c-3.274,6.117-8.316,10.284-14.399,13.386c-5.072,2.587-9.257,6.167-13.133,11.839
		c2.674,0.144,4.243,0.389,5.785,0.276c2.988-0.216,5.954-0.813,8.942-0.934c9.101-0.37,15.23,8.248,11.652,16.571
		c-2.431,5.652-5.38,11.08-8.02,16.646c-2.116,4.461-1.714,8.198,1.812,12.281c10.871,12.592,10.672,37.085-0.836,49.468
		c-6.749,7.263-14.407,13.933-22.545,19.592c-11.873,8.258-24.803,14.986-36.764,23.128c-5.777,3.933-10.962,9.133-15.33,14.622
		c-3.864,4.855-2.571,9.168,2.355,12.966c3.426,2.642,7.044,5.041,10.657,7.426c3.886,2.565,5.917,6.023,4.663,10.615
		c-1.576,5.774-0.337,10.085,5.169,12.974c3.188,1.673,3.815,4.528,2.541,7.693c-1.114,2.764-2.513,5.417-3.861,8.08
		c-1.728,3.413-3.843,6.665-5.243,10.202c-4.31,10.888-1.931,17.966,8.312,23.943c35.58,20.767,60.615,50.447,75.816,88.65
		c6.213,15.613,13.385,30.844,16.402,47.59c1.228,6.812-0.76,11.737-5.545,16.548c-13.603,13.675-29.446,16.453-47.775,12.17
		c-22.439-5.244-42.976-15.06-63.745-24.478C487.6,920.367,406.3,883.952,322.811,852.7c-27.083-10.138-54.778-17.691-83.771-19.999
		c-30.674-2.44-59.708,2.728-86.864,17.528c-4.239,2.31-8.565,4.477-12.956,6.481c-1.842,0.842-3.957,1.088-5.947,1.604
		C132.856,857.875,132.439,857.435,132.023,856.994z M592.696,383.966c10.305-2.156,17.101-8.6,17.731-18.076
		c0.581-8.732-0.037-17.608-0.957-26.333c-0.248-2.346-3.521-4.373-5.406-6.546c-1.821,1.686-3.848,3.202-5.417,5.096
		c-2.394,2.888-4.699,5.904-6.595,9.129c-1.055,1.795-1.762,4.152-1.654,6.204c0.329,6.281,1.194,12.532,1.719,18.806
		C592.432,376.011,592.499,379.797,592.696,383.966z M128.751,639.199c1.034,17.154,9.79,27.752,24.664,33.56
		c1.33,0.519,4.649-0.604,4.988-1.637c1.063-3.244,1.39-6.601-2.091-9.373c-7.667-6.106-15.017-12.607-22.533-18.904
		C132.324,641.626,130.703,640.605,128.751,639.199z M598.819,307.305c0.926,2.459,1.932,5.545,3.231,8.503
		c2.897,6.598,6.79,12.504,12.323,17.459c4.393-8.777,2.198-20.748-4.992-28.048c-0.323,0.744-0.604,1.391-0.907,2.088
		c-0.648-3.901,0.504-8.326-4.4-11.349c-0.229,2.815-0.386,4.728-0.53,6.492c-0.288-1.925-0.595-3.975-0.934-6.239
		c-6.909,3.686-8.068,6.963-4.655,12.153C598.558,307.626,599.132,306.923,598.819,307.305z M618.303,292.027
		c-5.138,5.679-3.886,10.881-1.63,16.025c4.354,9.93,5.796,19.686-0.605,29.43c-0.778,1.186-0.374,3.148-0.519,4.751
		c0.48,0.026,0.96,0.052,1.439,0.078C627.022,326.257,624.461,309.734,618.303,292.027z M609.473,282.751
		c-0.908-9.07-4.081-13.733-9.464-13.795c-0.139,0.439-0.497,0.953-0.397,1.354c1.823,7.39,3.619,14.79,5.708,22.106
		c0.186,0.651,2.998,1.422,3.482,0.965c2.002-1.891,3.927-4.058,5.142-6.492c0.512-1.025-0.661-3.043-1.407-4.428
		C612.369,282.151,610.783,282.606,609.473,282.751z M598.267,330.211c-5.53-1.354-9.688-2.977-13.926-3.222
		c-3.508-0.204-5.891,4.561-3.855,6.768c2.65,2.875,5.595,5.479,8.751,8.527C591.732,338.948,594.539,335.196,598.267,330.211z
		 M606.59,248.251c-0.396,0.166-0.792,0.331-1.188,0.496c0.81,1.547,1.62,3.094,2.663,5.087c-2.34-1.613-4.163-2.87-5.985-4.126
		c-0.211,0.372-0.421,0.744-0.632,1.116c5.408,9.587,10.817,19.174,16.683,29.57C618.448,267.415,613.522,257.447,606.59,248.251z
		 M168.832,698.874c0.536-0.069,1.071-0.14,1.607-0.21c6.387-11.275,4.092-18.992-6.562-19.137
		C165.567,686.128,167.2,692.501,168.832,698.874z M148.216,644.193c0.333-0.192,0.667-0.385,1.001-0.577
		c-0.72-4.737-1.235-9.519-2.267-14.188c-0.369-1.671-1.983-3.068-3.029-4.59c-0.659,1.843-2.29,4.015-1.798,5.468
		C143.739,635.076,146.125,639.584,148.216,644.193z M133.445,632.393c3.406,3.959,6.41,7.449,9.413,10.94
		c0.229-0.228,0.458-0.454,0.688-0.681c-1.394-4.607-2.788-9.214-4.308-14.24C137.387,629.684,135.938,630.68,133.445,632.393z
		 M156.846,658.416c0.543-0.512,1.086-1.023,1.629-1.535c-2.406-2.662-4.811-5.325-7.216-7.987
		c-0.485,0.428-0.969,0.856-1.454,1.284C152.152,652.924,154.499,655.67,156.846,658.416z"/>
	
</g>
</svg>
