<?xml version="1.0" encoding="utf-8"?>
<!-- Generator: Adobe Illustrator 16.0.0, SVG Export Plug-In . SVG Version: 6.00 Build 0)  -->
<!DOCTYPE svg PUBLIC "-//W3C//DTD SVG 1.1//EN" "http://www.w3.org/Graphics/SVG/1.1/DTD/svg11.dtd">
<svg version="1.1" id="Layer_1" xmlns="http://www.w3.org/2000/svg" xmlns:xlink="http://www.w3.org/1999/xlink" x="0px" y="0px"
	 width="756px" height="1057px" viewBox="0 0 756 1057" enable-background="new 0 0 756 1057" xml:space="preserve">
<g>
	
	<path fill-rule="evenodd" fill="white" clip-rule="evenodd" d="M145.953,533.814c2.473,10.737,4.945,21.475,7.627,33.121
		c-5.384-11.247-9.35-22.063-10.16-33.69c-1.167-16.754-1.473-33.57-2.751-50.313c-0.77-10.087-3.134-20.048-3.987-30.133
		c-1.427-16.87-2.085-33.804-3.33-50.691c-0.734-9.958-2.023-19.874-2.963-29.818c-0.313-3.306-0.389-6.64-0.44-9.963
		c-0.072-4.613-0.018-9.229-0.365-13.85c-5.704,18.538-3.122,37.369-2.139,56.123c-7.397-47.423,2.678-93.478,10.755-139.837
		c-1.313,3.682-2.671,7.347-3.925,11.049c-1.22,3.601-2.332,7.239-3.904,10.726c2.176-14.461,6.608-28.242,13.178-41.271
		c6.595-13.078,13.603-25.948,20.163-39.279c-3.267,3.923-6.533,7.847-9.8,11.771c-0.281-0.165-0.563-0.33-0.844-0.495
		c0.763-1.272,1.374-2.671,2.31-3.799c17.748-21.381,35.533-42.73,53.311-64.086c11.012-6.141,21.998-12.33,33.055-18.388
		c2.59-1.419,5.423-2.395,8.144-3.574c-0.061-0.483-0.122-0.967-0.182-1.45c-2.523,0.243-5.368-0.187-7.515,0.841
		c-10.917,5.227-21.664,10.811-32.442,16.325c-1.396,0.714-2.631,1.745-3.94,2.629c-0.286-0.395-0.572-0.79-0.858-1.185
		c4.999-3.618,9.828-7.502,15.026-10.806c19.665-12.498,41.361-18.876,64.446-20.995c1.689-0.155,3.749-0.818,4.851-1.985
		c3.834-4.061,7.323-8.448,11.825-12.018c-1.77,0.726-3.54,1.452-5.31,2.178c-0.161-0.237-0.322-0.473-0.483-0.71
		c3.7-2.63,7.486-5.148,11.074-7.923c3.624-2.803,7.499-5.469,10.485-8.877c11.501-13.125,25.479-21.78,42.726-24.929
		c1.926-0.352,3.9-0.438,5.957-0.266c-12.634,3.014-25.074,6.286-34.711,15.93c0.438,0.311,0.756,0.655,0.868,0.598
		c20.21-10.353,41.696-11.422,63.813-9.479c14.242,1.251,28.621,0.931,42.872,2.109c7.17,0.593,14.146,3.229,21.292,4.467
		c16.395,2.841,32.847,5.354,49.26,8.097c2.837,0.474,5.595,1.419,8.218,2.862c-6.53-1.03-13.06-2.061-19.59-3.09
		c-0.067,0.286-0.136,0.571-0.204,0.857c12.309,3.796,24.572,7.747,36.938,11.345c12.419,3.614,24.939,6.877,37.415,10.294
		c-0.148,0.555-0.297,1.11-0.445,1.665c-5.745-1.568-11.489-3.135-17.234-4.703c-0.151,0.352-0.302,0.703-0.453,1.054
		c14.184,7.117,28.366,14.235,42.713,21.434c-1.073-0.129-2.143-0.257-3.213-0.386c-0.225,0.367-0.449,0.734-0.674,1.102
		c20.723,12.566,41.445,25.132,62.168,37.698c-0.134,0.249-0.267,0.497-0.399,0.745c-11.41-5.86-22.82-11.721-34.23-17.581
		c-0.411,0.526-0.822,1.053-1.234,1.579c4.445,3.896,8.547,8.298,13.403,11.584c11.442,7.744,23.26,14.929,34.884,22.407
		c1.943,1.25,3.673,2.833,4.979,5.093c-10.815-6.908-21.631-13.817-32.445-20.725c-0.068,0.146-0.136,0.292-0.204,0.438
		c10.961,9.992,21.922,19.984,32.884,29.977c-0.296,0.335-0.592,0.67-0.888,1.005c-3.12,0.141-6.24,0.282-9.36,0.423
		c-0.095,0.422-0.189,0.844-0.284,1.266c7.813,6.249,15.628,12.498,23.441,18.747c-0.256,0.341-0.512,0.682-0.768,1.022
		c-9.018-6.797-18.036-13.595-27.054-20.393c-0.021,0.126-0.041,0.253-0.062,0.38c5.528,6.274,11.056,12.549,16.584,18.824
		c-0.141,0.135-0.28,0.27-0.42,0.404c-6.438-5.736-12.877-11.473-19.315-17.21c-0.452,0.446-0.905,0.891-1.357,1.337
		c7.524,8.371,15.05,16.742,22.575,25.113c-0.343,0.322-0.685,0.645-1.026,0.966c-2.079-2.33-4.159-4.66-6.238-6.99
		c7.169,14.797,18.704,27.747,17.296,46.501c-0.916-1.706-1.512-2.815-2.474-4.607c-5.951,12.57,0.861,25.693-3.737,38.149
		c-0.813-1.292-1.272-2.018-2.445-3.88c-0.862,6.785-1.913,12.353-2.214,17.962c-0.752,14.04-5.109,26.239-15.973,35.822
		c-7.86,6.935-8.912,10.142-3.543,19.05c13.886,23.036,25.204,47.671,42.424,68.659c5.153,6.281,8.771,13.235,8.845,21.765
		c0.059,6.734-2.574,12.02-8.354,14.799c-8.953,4.306-18.132,8.364-27.593,11.319c-7.348,2.295-11.854,6.351-12.405,13.727
		c-0.505,6.743-0.276,13.626,0.467,20.355c1.087,9.834-1.265,15.13-9.916,19.59c-4.639,2.391-9.409,11.871-8.206,16.891
		c0.299,1.248,1.645,2.355,2.716,3.291c9.188,8.02,10.245,15.64,1.552,24.277c-10.753,10.685-11.985,23.332-11.109,37.291
		c0.493,7.869,0.131,16.006-1.359,23.729c-1.845,9.556-8.323,15.965-18.02,18.023c-28.483,6.048-57.025,11.819-85.546,17.694
		c-0.964,0.199-1.939,0.347-3.744,0.665c3.338,7.511,5.549,15.385,9.927,21.772c11.192,16.328,23.308,32.026,35.188,47.877
		c1.234,1.646,3.261,2.804,5.102,3.876c32.717,19.064,57.191,45.701,72.092,80.501c7.38,17.235,13.057,35.204,19.413,52.874
		c3.421,9.512-1.047,15.718-7.978,22.082c-13.843,12.712-29.358,12.979-46.253,9.057c-21.944-5.095-41.98-14.912-62.294-24.134
		c-78.245-35.52-156.685-70.598-237.058-101.113c-30.84-11.71-62.069-22.388-94.759-27.756
		c-38.525-6.327-77.264-9.104-115.724-0.396c-15.974,3.617-31.322,10.017-46.921,15.251c-3.306,1.109-6.386,2.925-9.719,3.911
		c-2.208,0.654-5.734,1.408-6.771,0.316c-1.289-1.36-1.478-4.945-0.63-6.919c2.274-5.292,4.447-11.099,8.295-15.148
		c9.492-9.989,19.531-19.542,30.036-28.461c11.545-9.802,23.732-18.866,35.868-27.947c15.602-11.674,31.496-22.956,47.11-34.612
		c3.547-2.647,6.71-5.925,9.625-9.282c7.533-8.679,14.781-17.604,22.238-26.351c3.709-4.351,3.875-9.054,0.245-13.495
		c-7.889-9.652-15.705-19.365-23.643-28.978c-8.637-10.458-10.525-23.547-14.077-35.959c-2.182-7.624-3.775-15.417-5.632-23.134
		C147.573,533.55,146.763,533.682,145.953,533.814z"/>
</g>
</svg>
