<?xml version="1.0" encoding="utf-8"?>
<!-- Generator: Adobe Illustrator 16.0.0, SVG Export Plug-In . SVG Version: 6.00 Build 0)  -->
<!DOCTYPE svg PUBLIC "-//W3C//DTD SVG 1.1//EN" "http://www.w3.org/Graphics/SVG/1.1/DTD/svg11.dtd">
<svg version="1.1" id="Layer_1" xmlns="http://www.w3.org/2000/svg" xmlns:xlink="http://www.w3.org/1999/xlink" x="0px" y="0px"
	 width="756px" height="1057px" viewBox="0 0 756 1057" enable-background="new 0 0 756 1057" xml:space="preserve">
<g>
	
	<path fill-rule="evenodd" fill="white" clip-rule="evenodd" d="M187.808,408.453c0.96-5.646,5.796-10.255,4.423-16.523
		c-0.303-1.385-0.154-3.405-1.02-4.046c-6.648-4.932-6.296-12.875-8.76-19.583c-0.962-2.621-1.417-5.448-2.551-7.981
		c-3.558-7.95-3.144-15.465,1.678-22.789c1.639-2.489,2.411-5.713,4.439-7.741c2.7-2.699,6.241-4.557,9.996-7.178
		c-2.306-5.434-2.174-11.688,0.921-17.795c3.055-6.028,8.321-9.282,15.559-11.743c-3.471-1.653-6.1-2.807-8.64-4.134
		c-8.353-4.363-11.574-15.493-7.103-23.906c1.002-1.885,1.394-4.085,2.245-6.063c1.437-3.344,2.163-7.777,4.726-9.674
		c4.252-3.147,3.355-8.246,6.175-11.7c0.418-0.512-0.368-2.078-0.703-3.123c-0.747-2.328-2.277-4.653-2.217-6.946
		c0.204-7.724,6.576-15.787,13.866-18.254c2.995-1.014,6.029-1.909,9.042-2.868c5.661-1.8,10.149-5.092,12.586-10.614
		c3.444-7.803,10.147-12.061,17.064-16.096c3.305-1.928,6.859-3.438,10.114-5.44c3.284-2.02,4.49-4.665,1.697-8.225
		c-1.87-2.382-3.351-5.069-5.006-7.62c0.421-0.332,0.843-0.664,1.264-0.997c1.336,2.062,2.672,4.123,4.296,6.627
		c2.249-3.142,3.625-5.065,4.363-6.096c0.244,3.151,0.38,6.852,0.963,10.482c0.092,0.577,2.175,0.873,3.36,1.226
		c1.409,0.42,2.943,1.271,4.238,1.012c1.683-0.336,3.183-1.583,4.746-2.428c-2.168-6.224-4.306-12.361-6.758-19.398
		c2.731-1.063,5.063-1.789,7.204-2.889c0.888-0.456,1.646-1.64,1.895-2.635c0.103-0.41-1.288-1.194-2.177-1.961
		c4.588-2.845,8.962-4.834,14.793-2.859c6.592,2.233,9.506-0.113,10.528-7.016c1.153-7.794,8.618-14.58,16.43-15.575
		c1.842-0.235,4.195-1.875,5.056-3.524c6.046-11.579,16.557-15.582,28.949-10.811c4.144,1.596,7.337-0.08,9.689-3.616
		c1.194-1.795,1.971-4.151,3.607-5.295c1.835-1.283,4.813-2.593,6.625-1.964c8.213,2.849,16.191,6.377,24.254,9.661
		c-0.509,0.339-1.018,0.678-1.526,1.017c1.23,3.587,2.46,7.175,3.943,11.501c3.028-0.857,5.96-1.688,8.891-2.518
		c-1.101-1.91-2.201-3.82-2.688-4.665c2.062-0.526,4.818-1.228,7.574-1.934c0.16-0.042,0.313-0.177,0.466-0.172
		c10.22,0.308,16.974-5.637,23.954-12.145c5.108-4.761,12.202-3.813,17.596,1.71c5.371,5.499,11.515,9.122,18.383,12.417
		c4.506,2.163,7.587,7.258,11.379,10.965c1.51,1.477,3.036,3.118,4.879,4.031c2.579,1.277,6.251,0.835,6.556,5.114
		c0.041,0.574,1.229,1.576,1.801,1.519c3.315-0.333,6.591-1.078,9.907-1.375c2.438-0.218,5.126-0.564,7.337,0.202
		c4.935,1.709,9.64,4.079,14.352,6.141c-2.654,3.519-2.627,3.625,2.993,8.085c2.3-2.557,4.652-5.172,7.005-7.788
		c-1.073-0.821-2.147-1.643-2.831-2.166c7.284-3.342,15.023-6.892,22.762-10.442c0.114,0.198,0.229,0.395,0.342,0.593
		c-0.92,0.751-1.841,1.502-3.129,2.554c14.059,5.034,27.639,10.071,29.959,27.704c2.753,0.668,5.845,1.203,8.792,2.173
		c9.01,2.966,15.494,8.329,16.738,18.416c0.099,0.802,0.144,1.863,0.649,2.323c4.086,3.711,8.39,7.186,12.409,10.965
		c8.06,7.577,16.522,14.826,23.793,23.11c6.084,6.933,6.03,15.577,2.393,24.044c-0.833,1.938-2.291,3.822,0.729,5.412
		c2.596,1.366,4.835,2.197,6.967-0.667c2.365-3.176,4.844-6.269,8.299-8.796c-2.856,4.684-5.712,9.368-8.455,13.866
		c2.347,4.919,4.744,10.005,7.209,15.06c0.503,1.03,1.059,2.195,1.926,2.86c7.029,5.39,7.115,13.237,7.035,20.866
		c-0.026,2.5-1.899,5.213-3.511,7.398c-1.547,2.096-1.59,3.458-0.188,5.678c7.031,11.136,3.673,22.92-8.112,28.741
		c-10.724,5.296-21.894,7.814-33.749,4.423c-1.639-0.469-3.039-1.767-4.551-2.681c2.112,0.833,4.226,1.667,7.208,2.843
		c-3.46-4.135-6.116-7.311-8.818-10.542c-3.851,3.867,0.67,5.451,1.8,7.881c-1.513-0.111-3.026-0.222-4.539-0.333
		c0.337,1.495,0.419,3.109,1.052,4.465c4.42,9.469,10.036,18.423,10.919,29.299c0.191,2.365,2.445,4.623,3.925,6.811
		c3.871,5.725,3.458,8.902-1.962,13.168c-1.038,0.817-2.226,1.453-3.377,2.116c-8.186,4.718-9.807,11.958-3.624,19.006
		c12.303,14.024,24.884,27.807,37.438,41.61c4.63,5.091,7.435,10.938,8.633,17.688c1.082,6.102-0.676,11.067-5.04,15.412
		c-6.111,6.083-13.582,8.792-21.959,9.559c-1.821,0.167-3.631,0.462-5.446,0.693c-3.772,0.48-5.866,2.517-5.215,6.401
		c1.15,6.852,1.889,13.875,4.006,20.437c2.979,9.237,2.101,12.226-6.781,15.764c-2.241,0.893-4.387,2.025-7.458,3.458
		c2.479,1.81,4.096,3.134,5.849,4.243c4.952,3.136,7.893,9.234,6.146,14.843c-0.655,2.102-3.067,4.315-5.205,5.187
		c-11.767,4.796-14.007,10.177-8.321,21.71c4.137,8.391,7.25,17.187,4.765,26.44c-1.306,4.861-4.036,10.26-7.816,13.329
		c-6.37,5.173-13.976,8.9-21.303,12.777c-2.52,1.333-5.865,2.099-8.657,1.741c-10.297-1.317-20.29,0.391-30.233,2.394
		c-15.865,3.196-31.673,2.605-47.72,1.376c-13.796-1.057-27.15,1.639-36.885,13.292c-1.667,1.996-1.713,3.362-0.618,5.676
		c4.109,8.688,7.82,17.565,11.859,26.288c0.811,1.751,2.368,3.169,3.646,4.686c1.909,2.268,3.876,4.487,6.298,7.28
		c6.892-6.135,14.41-1.625,21.593,0.363c15.698,4.347,31.153,9.564,46.751,14.282c5.025,1.521,8.515,4.625,10.322,9.368
		c3.374,8.849,6.504,17.792,9.645,26.728c6.946,19.762,13.833,39.543,20.764,59.31c0.217,0.616,0.617,1.179,0.989,1.728
		c14.642,21.568,23.689,45.786,32.771,69.941c2.793,7.43,4.149,15.393,6.302,23.072c2.213,7.893-0.883,13.563-6.418,19.12
		c-15.742,15.811-34.115,17.927-54.871,12.875c-24.332-5.921-46.676-16.59-69.264-26.838
		c-90.229-40.938-180.672-81.373-273.45-116.315c-30.025-11.308-60.683-20.108-92.797-22.989
		c-34.444-3.09-67.438,1.621-98.292,18.13c-6.448,3.449-13.118,6.498-19.775,9.532c-1.154,0.525-2.941,0.422-4.078-0.129
		c-0.489-0.237-0.413-2.484-0.004-3.602c4.69-12.811,8.481-26.096,14.637-38.17c3.857-7.564,10.711-13.993,17.299-19.683
		c10.619-9.17,21.124-18.246,29.455-29.704c3.058-4.206,7.066-8.098,11.434-10.895c8.269-5.296,15.437-11.63,21.339-19.355
		c13.487-17.65,30.445-31.552,47.564-45.421c9.135-7.401,17.153-16.182,25.901-24.555c-1.15-0.975-1.748-1.509-2.373-2.007
		c-4.88-3.889-4.298-10.168,1.761-11.131c7.958-1.266,11.473-7.052,16.424-11.818c7.139-6.872,14.89-13.11,22.405-19.589
		c1.366-1.177,2.854-2.211,4.286-3.312c-0.119-0.716-0.238-1.432-0.357-2.147c-2.738-0.896-5.442-1.915-8.22-2.664
		c-12.092-3.263-24.782-4.893-35.218-12.657c-1.813-1.349-3.949-3.247-4.407-5.243c-1.223-5.326-5.179-7.905-9.073-10.701
		c-8.086-5.807-12.762-13.313-12.653-23.609c0.032-3.091-0.923-6.257-1.806-9.278c-1.269-4.342-1.967-8.371,1.734-12.033
		c0.726-0.719,0.738-2.438,0.643-3.661c-0.561-7.23-1.237-14.451-1.906-21.672c-0.131-1.413-0.402-2.813-0.608-4.218
		c-0.479-0.107-0.958-0.213-1.437-0.32c-1.557,3.953-3.113,7.905-4.67,11.857c-0.396-0.101-0.792-0.201-1.188-0.302
		c1.132-5.526,2.264-11.053,3.428-16.74c-0.641,0.113-1.638,0.288-2.732,0.48c0.056-0.505-0.022-0.898,0.132-1.042
		c2.819-2.625,5.878-5.035,8.4-7.916c0.967-1.104,1.593-3.983,0.893-4.836c-5.424-6.602-0.043-11.929,1.851-17.671
		c-0.214,2.591-0.428,5.183-0.714,8.651c2.06-2.385,3.542-4.1,5.027-5.824c-0.505,1.991-1.014,3.99-1.523,5.989
		c0.469,0.163,0.938,0.325,1.406,0.487c1.404-2.945,2.808-5.891,4.212-8.835c-0.493-0.263-0.986-0.526-1.479-0.789
		C189.641,406.241,188.725,407.347,187.808,408.453z M320.17,133.548c1.064-3.44,2.128-6.88,3.192-10.32
		c-0.594-0.224-1.187-0.447-1.78-0.671c-2.341,5.523-4.681,11.046-7.021,16.568c0.547,0.267,1.094,0.533,1.641,0.799
		c1.35-2.192,2.7-4.385,4.049-6.577c-0.123,1.63-0.246,3.26-0.454,6.027c6.301-5.519,6.851-11.782,7.372-18.052
		C324.841,125.386,322.514,129.451,320.17,133.548z M654.471,321.632c-0.723,0.87-1.446,1.74-2.896,3.485
		c5.653-0.852,10.547,0.23,14.319-3.118c-0.104-0.567-0.208-1.135-0.312-1.703c-3.742,0.481-7.484,0.961-11.227,1.442
		c-4.479-2.792-8.956-5.583-13.435-8.375c-0.899,2.063-0.979,2.901-0.688,3.576C642.786,322.831,645.812,323.803,654.471,321.632z
		 M586.534,153.62c0.788-8.167-3.166-13.307-8.865-17.206c-3.83-2.621-8.18-3.194-12.202-0.725
		c3.788,4.832,7.381,9.416,10.882,13.882c-0.898,0.489-2.109,1.149-3.321,1.809c0.124,0.439,0.247,0.879,0.371,1.318
		C577.593,152.993,581.787,153.287,586.534,153.62z M622.249,174.521c-1.454-12.468-10.591-22.277-23.151-18.335
		c6.439,6.75,15.998,10.263,17.621,20.63C619.099,175.829,620.717,175.157,622.249,174.521z M290.488,162.685
		c0.503,0.259,1.006,0.519,1.509,0.778c0.999-1.696,1.95-3.423,3.007-5.082c2.534-3.974,4.937-8.052,7.76-11.813
		c1.351-1.8,3.536-2.975,5.343-4.433c-3.285-1.094-6.074-1.277-8.822-1.022c-1.534,0.142-3.98,0.646-4.34,1.612
		C292.548,149.15,289.066,155.431,290.488,162.685z M447.816,98.451c7.515,0.535,14.54,1.036,22.808,1.624
		c-3.696-6.311-8.114-8.548-13.233-8.604C453.269,91.426,449.961,93.791,447.816,98.451z M648.085,207.305
		c10.639,0.861,11.633,9.646,14.646,17.183c2.451-9.901-3.991-21.543-13.038-24.104
		C649.213,202.447,648.736,204.501,648.085,207.305z M643.698,310.481c5.282,7.466,12.036,9.893,17.273,7.391
		c7.249-3.463,10.363-8.915,8.183-16.452C664.184,313.594,657.236,320.153,643.698,310.481z M183.973,360.966
		c-1.45-7.531,6.391-14.58,1.238-22.724C178.083,345.902,177.586,352.776,183.973,360.966z M362.763,112.029
		c-11.325-3.959-20.309,1.497-19.659,12.558C347.609,116.119,354.414,112.863,362.763,112.029z M343.022,109.798
		c5.351-2.214,10.702-4.429,16.873-6.982C352.436,99.739,344.931,102.589,343.022,109.798z M402.757,117.584
		c0.461,0.228,0.921,0.455,1.381,0.682c0.532-1.719,1.884-3.708,1.425-5.1c-0.913-2.769-2.629-5.35-4.382-7.739
		c-1.327-1.807-3.226-3.194-4.87-4.768c-0.491,0.382-0.982,0.764-1.475,1.146C397.477,107.065,400.117,112.324,402.757,117.584z
		 M297.622,155.635c0.602,0.593,1.204,1.186,1.806,1.779c3.519-5.31,12.812-5.109,12.688-15.784
		C306.642,146.918,302.132,151.277,297.622,155.635z M581.889,131.03c4.996,7.661,9.573,14.682,14.862,22.792
		C595.49,143.051,590.047,136.552,581.889,131.03z M636.206,186.135c-0.59,0.357-1.179,0.715-1.769,1.072
		c0.385,1.838,0.177,4.646,1.275,5.318c2.483,1.52,5.612,1.985,8.479,2.88c0.371-0.768,0.742-1.537,1.114-2.305
		C642.272,190.779,639.239,188.457,636.206,186.135z M681.345,315.748c5.796-4.753,6.599-14.112,1.289-19.356
		C682.215,302.676,681.768,309.403,681.345,315.748z M185.943,495.799c-0.62,0.261-1.239,0.521-1.859,0.782
		c0.818,5.331,1.261,10.859,6.918,13.645c0.588-0.297,1.177-0.594,1.765-0.892C190.493,504.822,188.218,500.311,185.943,495.799z
		 M199.484,319.767c1.668-2.046,2.878-3.53,3.7-4.539c-1.255-3.284-2.303-6.027-3.477-9.099
		C196.867,310.612,195.722,314.716,199.484,319.767z M335.351,117.536c-4.873,1.602-6.845,5.749-5.996,12.607
		C332.132,129.202,335.863,121.357,335.351,117.536z M650.786,221.405c1.486-3.479,3.07-7.072-1.437-8.763
		c-1.263-0.474-3.755,2.328-6.365,4.087C646.472,218.82,648.523,220.049,650.786,221.405z M671.785,249.265
		c1.929,6.442,3.857,12.884,5.785,19.327C678.372,261.248,677.872,254.335,671.785,249.265z M640.711,197.042
		c-0.437,0.568-0.873,1.137-1.309,1.705c1.508,2.858,3.017,5.716,4.525,8.574c0.674-0.101,1.348-0.202,2.021-0.303
		c0.356-2.439,1.623-5.279,0.781-7.19C646.063,198.31,642.813,197.929,640.711,197.042z M188.229,337.9
		c4.61-2.54,6.46-5.801,4.613-10.678C187.455,329.447,186.266,332.08,188.229,337.9z M684.365,283.108
		c3.355-6.979,2.229-13.25-3.131-16.926C682.31,271.994,683.256,277.113,684.365,283.108z M206.751,250.781
		c-0.41-0.152-0.819-0.303-1.229-0.455c-1.66,3.12-3.32,6.239-5.516,10.365c3.141-0.406,4.995-0.646,6.744-0.873
		C206.751,256.479,206.751,253.63,206.751,250.781z M198.126,383.553c0.26-4.717,0.462-8.388,0.689-12.502
		C193.62,373.819,193.175,379.038,198.126,383.553z M571.464,128.888c-0.223-0.498-0.446-0.996-0.669-1.494
		c-4.076,0.507-8.116,1.077-10.395,4.75c0.391,0.704,0.78,1.409,1.171,2.113C564.869,132.468,568.166,130.678,571.464,128.888z
		 M205.569,280.71c1.113-4.913-3.056-6.238-5.503-9.003C198.464,277.014,199.322,278.361,205.569,280.71z M272.893,183.856
		c-6.076-2.119-9.531-0.267-11.205,6.218C265.573,187.919,269.155,185.931,272.893,183.856z M395.156,109.752
		c-2.81,0.641-5.363,1.224-7.917,1.806c-0.027,0.346-0.056,0.693-0.084,1.039c3.665,1.042,7.329,2.085,11.839,3.368
		C397.449,113.466,396.425,111.807,395.156,109.752z M217.129,219.462c-0.538-0.132-1.075-0.264-1.613-0.396
		c-0.923,3.866-1.846,7.732-2.769,11.599c0.588,0.147,1.176,0.293,1.764,0.44C218.75,228.127,215.918,223.252,217.129,219.462z
		 M210.527,304.777c-2.795,3.536-2.935,6.478,1.156,9.012C215.782,310.168,213.495,307.549,210.527,304.777z M538.59,153.815
		c0.753-0.265,1.507-0.529,2.261-0.794c-1.521-3.491-3.041-6.982-4.561-10.473c-0.739,0.299-1.479,0.599-2.218,0.899
		C532.949,147.887,538.634,149.78,538.59,153.815z M193.971,412.813c-0.843-0.086-1.685-0.172-2.528-0.259
		c-0.321,3.411-0.643,6.822-0.964,10.233c0.835,0.085,1.669,0.17,2.504,0.255C193.313,419.632,193.642,416.222,193.971,412.813z
		 M388.638,104.543c-4.5-2.232-6.777-0.91-8.161,1.873c-0.329,0.663,0.896,2.098,1.406,3.178
		C383.953,108.046,386.023,106.499,388.638,104.543z M381.707,98.28c0.312,0.987,0.622,1.974,0.934,2.96
		c2.981-1.039,5.964-2.078,8.945-3.118c-0.252-0.804-0.505-1.608-0.758-2.413C387.788,96.567,384.747,97.423,381.707,98.28z
		 M199.5,281.059c2.698,6.268,5.893,7.875,10.574,5.201C206.544,284.524,203.36,282.958,199.5,281.059z M409.229,114.515
		c0.268-7.072-4.517-9.521-7.392-13.175c-0.432,0.683-0.551,1.223-0.339,1.548C403.805,106.423,406.163,109.924,409.229,114.515z
		 M207.038,263.61c-6.92,3.816-7.175,4.972-1.887,9.434C205.798,269.808,206.385,266.875,207.038,263.61z M582.235,136.331
		c-4.513-6.528-7.435-7.418-11.01-4.076C574.582,133.498,577.882,134.72,582.235,136.331z M422.678,110.833
		c5.628-1.771,9.882-3.108,14.135-4.446c-0.188-0.448-0.375-0.897-0.563-1.345C431.29,104.758,427.007,106.248,422.678,110.833z
		 M211.18,264.316c-4.926,5.053-5.265,8.626-1.58,11.806C210.102,272.37,210.563,268.919,211.18,264.316z M662.415,307.953
		c-0.205-0.552-0.41-1.104-0.615-1.657c-4.154,0.916-8.309,1.832-12.463,2.747c0.163,0.663,0.325,1.326,0.488,1.989
		C654.021,310.005,658.219,308.979,662.415,307.953z M656.532,217.968c-4.588,6.099-4.588,6.099,0.555,8.804
		C656.889,223.627,656.711,220.798,656.532,217.968z M561.21,138.183c-5.115,1.223-6.129,3.508-4.32,10.261
		C558.477,144.676,559.791,141.552,561.21,138.183z M217.984,226.44c0.557,0.25,1.115,0.501,1.672,0.751
		c2.244-4.924,4.488-9.849,6.731-14.774c-0.407-0.208-0.814-0.416-1.221-0.624C222.772,216.676,220.378,221.558,217.984,226.44z
		 M599.945,165.709c-0.678,0.132-1.354,0.263-2.032,0.395c-0.077,1.525-0.784,3.558-0.07,4.448c0.895,1.113,2.958,1.287,4.517,1.866
		c0.358-0.499,0.717-0.997,1.075-1.495C602.271,169.185,601.108,167.447,599.945,165.709z M258.953,195.698
		c0.086-0.549,0.172-1.097,0.258-1.646c-2.236-0.354-4.488-1.021-6.7-0.905c-0.861,0.045-1.63,1.853-2.922,3.456
		C253.584,196.216,256.269,195.957,258.953,195.698z M367.64,117.079c-0.191-0.632-0.382-1.264-0.573-1.896
		c-1.712,0.271-3.975-0.003-4.961,0.989c-0.777,0.783,0.019,3.127,0.186,5.957C364.855,119.709,366.248,118.394,367.64,117.079z
		 M204.203,310.316c0.563,0.021,1.125,0.042,1.688,0.063c0.229-2.823,0.459-5.646,0.689-8.468c-0.792-0.037-1.585-0.073-2.377-0.109
		C204.203,304.64,204.203,307.478,204.203,310.316z M195.984,331.874c2.045-2.805,3.573-4.9,5.58-7.653
		C195.043,325.325,194.719,325.749,195.984,331.874z M192.906,355.856c0.073-0.631,0.146-1.262,0.219-1.893
		c-1.505-0.96-3.01-1.921-4.514-2.881c-0.437,0.249-0.874,0.497-1.311,0.746c0.331,1.516,0.188,3.684,1.125,4.364
		C189.351,356.862,191.368,356.029,192.906,355.856z M677.905,306.865c-0.482-0.381-0.965-0.763-1.447-1.144
		c-2.076,2.566-4.151,5.133-6.228,7.7c0.513,0.412,1.024,0.824,1.537,1.236C673.813,312.059,675.859,309.462,677.905,306.865z"/>
	
</g>
</svg>
