<?xml version="1.0" encoding="utf-8"?>
<!-- Generator: Adobe Illustrator 16.0.0, SVG Export Plug-In . SVG Version: 6.00 Build 0)  -->
<!DOCTYPE svg PUBLIC "-//W3C//DTD SVG 1.1//EN" "http://www.w3.org/Graphics/SVG/1.1/DTD/svg11.dtd">
<svg version="1.1" id="Layer_1" xmlns="http://www.w3.org/2000/svg" xmlns:xlink="http://www.w3.org/1999/xlink" x="0px" y="0px"
	 width="756px" height="1057px" viewBox="0 0 756 1057" enable-background="new 0 0 756 1057" xml:space="preserve">
<g>
	
	<path fill-rule="evenodd" fill="white" clip-rule="evenodd" d="M75.372,815.607c2.677-7.494,4.609-13.482,6.935-19.314
		c11.101-27.836,21.544-55.972,33.766-83.311c7.295-16.319,17.461-31.353,26.299-46.985c11.22-19.848,22.425-39.704,33.593-59.581
		c5.47-9.735,11.681-18.538,22.847-22.678c5.915-2.192,11.679-3.643,18.026-2.626c1.352,0.216,3.729-0.741,4.313-1.852
		c2.614-4.977,5.454-10.013,6.917-15.381c3.148-11.559,8.564-21.614,17.014-30.069c0.557-0.557,0.997-1.23,2.11-2.625
		c-2.176,0-3.562,0.052-4.942-0.009c-8.642-0.377-17.376-0.139-25.894-1.378c-6.605-0.961-13.288-3.085-19.242-6.075
		c-2.809-1.41-4.488-5.876-5.773-9.297c-1.419-3.78-3.786-5.903-6.699-5.33c-3.195-6.418-6.278-12.61-9.361-18.803
		c0.272-0.229,0.544-0.458,0.816-0.688c1.074,0.719,2.148,1.437,3.381,2.262c0.26-0.544,0.626-0.953,0.615-1.352
		c-0.041-1.493,0.361-3.457-0.421-4.39c-3.292-3.921-4.29-9.111-6.891-13.056c-9.313-14.125-9.238-23.544,2.057-36.37
		c0.755-0.857,1.489-1.732,2.387-2.78c-1.049-1.431-1.998-2.724-2.976-4.057c5.778-2.075,6.335-3.627,2.042-7.58
		c-3.287-3.026-2.659-4.764,0.407-7.415c3.055-2.643,5.454-6.045,8.14-9.114c-0.433-0.524-0.867-1.049-1.3-1.574
		c-4.998,1.608-10.015,3.159-14.99,4.836c-13.208,4.451-25.738,0.945-37.966-3.664c-12.761-4.81-23.434-12.526-30.541-24.595
		c-1.504-2.554-3.759-4.657-5.594-7.024c-3.546-4.574-3.463-7.83,0.75-11.848c2.638-2.515,5.533-4.874,8.637-6.769
		c18.466-11.275,37.031-22.389,55.546-33.583c0.941-0.569,2.547-1.49,2.472-2.067c-0.792-6.024,4.384-7.292,7.774-9.752
		c2.643-1.918,3.457-3.604,2.707-7.014c-6.117-27.835-11.442-55.794-12.314-84.415c-0.549-18.017,5.709-33.353,18.109-46.071
		c13.41-13.754,29.082-24.214,47.115-31.229c29.095-11.316,59.106-19.434,89.299-27.151c25.33-6.475,49.845-15.443,74.216-25.065
		c25.003-9.872,51.362-15.104,78.314-8.782c21.173,4.966,36.354,17.738,45.248,38.058c7.539,17.227,16.028,34.036,23.963,51.093
		c1.679,3.608,3.875,5.21,7.817,3.844c4.779-1.656,7.718,0.829,9.677,4.734c3.791,7.555,7.451,15.177,11.035,22.832
		c1.82,3.887,3.357,7.907,5.224,12.343c9.348-2.328,18.647-4.847,28.042-6.94c19.486-4.342,39.021-8.466,58.541-12.648
		c1.13-0.242,2.32-0.257,3.483-0.276c6.644-0.105,8.711,2.301,6.72,8.578c-5.188,16.353-13.005,30.664-27.96,40.68
		c-19.33,12.945-40.19,22.138-62.34,28.753c-1.59,0.475-3.18,0.957-4.751,1.489c-0.271,0.092-0.448,0.456-1.007,1.059
		c2.514,6.244,4.96,12.746,7.751,19.097c1.683,3.831,3.693,7.559,5.943,11.085c1.895,2.969,1.758,5.467-0.139,8.286
		c-4.575,6.798-3.565,17.322,1.741,23.312c11.698,13.202,23.354,26.445,34.775,39.886c3.427,4.033,6.378,8.578,8.931,13.226
		c8.317,15.142-2.493,34.323-19.783,35.509c-2.812,0.193-5.602,0.712-9.284,1.196c0.614,7.553,1.254,14.945,1.802,22.345
		c0.283,3.813,0.683,7.65,0.531,11.457c-0.22,5.514-2.486,7.643-7.988,8.293c-4.419,0.522-8.838,1.04-13.618,2.78
		c1.323,1.055,2.688,2.063,3.963,3.172c6.809,5.919,7.045,12.587,0.691,18.67c-5.444,5.213-5.632,9.771-0.644,15.647
		c15.021,17.693,7.193,45.417-14.634,53.174c-7.451,2.647-14.209,7.186-21.528,10.279c-12.223,5.167-24.445,10.473-37.048,14.545
		c-8.106,2.62-13.318,5.979-17.124,14.476c-6.134,13.691-12.616,27.637-23.547,38.614c-0.912,0.917-1.688,1.971-2.657,3.115
		c2.377,2.804,4.63,5.448,6.868,8.105c4.958,5.886,7.916,12.735,11.222,19.684c8.707,18.299,11.072,38.946,22.416,56.313
		c5.039,7.716,6.907,17.496,10.269,26.319c0.521,1.368,1.207,2.709,2.025,3.922c6.481,9.607,14.567,17.12,24.584,23.448
		c27.705,17.503,48.477,41.638,61.849,71.601c7.179,16.087,13.06,32.761,19.249,49.273c1.442,3.846,1.809,8.104,2.581,12.189
		c0.921,4.867-0.959,8.793-4.286,12.199c-12.321,12.612-26.719,19.607-44.549,14.56c-15.332-4.341-31.015-8.277-45.451-14.806
		c-82.247-37.193-164.542-74.245-248.638-107.133c-28.725-11.234-57.751-21.412-88.468-25.973
		c-37.216-5.524-72.73-1.393-105.858,17.548c-3.318,1.897-6.807,3.53-10.326,5.03C80.687,814.754,78.736,814.881,75.372,815.607z"/>
</g>
</svg>
