<?xml version="1.0" encoding="utf-8"?>
<!-- Generator: Adobe Illustrator 16.0.0, SVG Export Plug-In . SVG Version: 6.00 Build 0)  -->
<!DOCTYPE svg PUBLIC "-//W3C//DTD SVG 1.1//EN" "http://www.w3.org/Graphics/SVG/1.1/DTD/svg11.dtd">
<svg version="1.1" id="Layer_1" xmlns="http://www.w3.org/2000/svg" xmlns:xlink="http://www.w3.org/1999/xlink" x="0px" y="0px"
	 width="756px" height="1057px" viewBox="0 0 756 1057" enable-background="new 0 0 756 1057" xml:space="preserve">
<g>
	<path fill-rule="evenodd" fill="white" clip-rule="evenodd" d="M185.88,364.237c0-4.563,0-9.126,0-14.169c-5.861,1.387-6.434,5.895-7.809,10.07
		c-2.46-8.219,0.126-14.322,7.218-17.704c10.395-4.957,10.446-4.968,8.006-15.969c-1.812-8.168-1.059-15.533,4.162-22.658
		c3.046-4.157,4.35-9.59,6.58-14.782c-2.203-0.992-4.229-1.904-6.256-2.817c5.432-0.101,11.117,0.976,14.271-5.979
		c-6.243-2.614-12.309-5.154-18.375-7.694c16.441,2.905,21.848,1.81,25.317-6.154c-0.926-0.248-1.818-0.486-2.881-0.77
		c0.445-0.302,0.765-0.682,1.14-0.748c4.115-0.725,4.835-3.24,4.877-7.157c0.093-8.549,2.049-16.507,9.913-21.746
		c1.055-0.703,1.261-2.68,1.312-2.798c5.354-4.329,10.024-8.103,14.693-11.878c0.344,0.44,0.689,0.881,1.033,1.321
		c-2.516,2.344-5.032,4.689-7.838,7.304c9.699-0.081,14.899-9.696,10.409-18.892c-0.818,1.325-1.53,2.479-2.351,3.808
		c0.531-4.29,0.876-8.331,1.565-12.313c0.843-4.876,4.542-6.986,8.906-7.367c3.452-0.302,4.512-1.947,5.841-4.839
		c1.887-4.105,4.914-7.686,7.454-11.489c-2.189,4.242-4.377,8.481-6.566,12.721c0.646,0.402,1.291,0.805,1.937,1.207
		c3.801-5.382,7.601-10.764,11.855-16.788c-2.947,1.208-5.172,2.12-7.396,3.031c2.444-1.584,4.717-4.11,7.361-4.589
		c11.429-2.069,14.903-9.84,15.454-20.604c-7.648,1.964-13.142,6.507-17.294,12.961c-0.343-0.328-0.686-0.655-1.028-0.983
		c2.547-2.818,4.731-6.122,7.717-8.353c6.209-4.639,14.172-6.835,18.911-13.567c-0.877,1.673-1.755,3.344-2.978,5.669
		c7.666-0.853,9.619-7.982,14.564-11.359c-2.389,0.139-4.379,0.956-6.21,2.04c-1.929,1.142-3.708,2.54-5.551,3.826
		c3.191-4.853,7.651-7.457,13.42-8.413c2.442-0.404,4.722-2.064,6.961-3.353c4.562-2.624,9.078-5.33,13.543-8.114
		c1.623-1.012,3.11-2.274,4.547-3.547c3.658-3.241,7.253-6.553,10.871-9.833c-3.145,3.411-6.287,6.819-9.429,10.227
		c0.428,0.484,0.855,0.968,1.283,1.451c5.154-4.058,10.308-8.116,16.517-13.003c-3.724,0.654-6.133,1.078-8.542,1.501
		c2.783-1.25,5.566-2.5,8.626-3.874c-0.31-0.756-0.784-1.916-1.122-2.742c9.12,6.365,16.45,2.04,24.155-3.589
		c0.405,0.188,1.925,1.557,2.92,1.246c8.694-2.713,17.489-5.268,25.85-8.821c5.11-2.172,9.78-2.387,14.99-1.312
		c6.429,1.327,13.336,1.222,19.306,3.583c4.091,1.618,7.575,1.565,11.407,0.998c1.307-0.194,2.768-1.028,3.664-2.017
		c3.408-3.759,6.564-4.409,10.701-1.067c2.488,2.01,4.26,1.439,7.036,0.757c5.229-1.285,11.056-2.725,16.08-1.607
		c6.541,1.455,11.779-1.479,17.462-2.622c6.43-1.293,11.678,0.296,17.116,3.271c2.629,1.439,5.934,1.585,8.778,2.708
		c2.795,1.102,6.002,2.122,7.969,4.187c5.986,6.289,12.331,5.872,17.333-1.527c-0.385,1.857-0.771,3.714-1.14,5.493
		c6.815,5.592,14.697,2.185,22.04,3.026c3.826,0.438,7.913,1.253,11.209,3.099c5.911,3.31,11.376,7.441,16.894,11.414
		c1.698,1.222,2.961,3.048,4.424,4.598c-0.309,0.307-0.617,0.613-0.926,0.92c-2.892-2.106-5.784-4.213-8.677-6.32
		c-0.328,0.282-0.656,0.564-0.983,0.847c3.015,3.874,5.618,8.185,9.148,11.514c4.661,4.395,9.902,8.229,15.174,11.901
		c3.61,2.515,7.759,4.244,11.54,6.534c1.296,0.786,2.208,2.207,3.295,3.337c-2.217-1.205-4.434-2.409-6.651-3.613
		c-0.244,0.395-0.488,0.79-0.732,1.184c2.571,2.219,5.142,4.439,7.713,6.658c0.393-0.372,0.784-0.744,1.177-1.115
		c-0.563-1.097-1.127-2.194-1.69-3.292c1.541,1.607,3.513,2.979,4.545,4.865c3.184,5.821,6.102,11.795,8.921,17.805
		c0.901,1.923,1.176,4.141,1.737,6.224c-0.404,0.145-0.809,0.29-1.213,0.434c-1.542-3.127-3.084-6.255-4.626-9.383
		c-0.28,0.083-0.561,0.167-0.84,0.25c-0.301,4.731-0.771,9.461-0.777,14.193c-0.002,1.123,1.316,2.592,2.414,3.319
		c11.277,7.47,13.887,18.129,11.523,30.676c-0.47,2.495-1.041,4.97-1.616,7.696c3.304,1.069,6.951,2.25,10.599,3.43
		c-0.076,0.267-0.152,0.533-0.228,0.8c-3.536-0.615-7.072-1.231-10.608-1.846c-0.1,0.269-0.198,0.538-0.298,0.807
		c3.087,1.632,6.175,3.264,10.329,5.459c-2.005,3.367-4.095,6.875-6.169,10.357c1.938,1.327,4.29,2.939,6.643,4.55
		c-0.204,0.474-0.407,0.947-0.611,1.421c-1.246,0.108-2.6,0.587-3.72,0.262c-5.497-1.594-6.86,1.852-8.099,6.031
		c-0.831,2.805-2.357,5.397-3.441,8.137c-0.64,1.618-1.135,3.313-1.506,5.015c-1.587,7.272-2.312,14.862-4.935,21.73
		c-1.64,4.291-6.124,7.483-9.286,11.208c-1.02,1.202-2.699,2.53-2.694,3.796c0.018,5.587-0.512,11.493,1.077,16.698
		c4.768,15.62,11.666,30.318,19.628,44.695c6.228,11.244,10.117,23.83,14.535,36.005c2.055,5.659-1.488,11.229-7.89,13.679
		c-3.869,1.481-8.035,2.206-11.86,3.777c-11.373,4.671-14.051,12.023-9.003,23.132c1.847,4.065,3.544,8.292,4.557,12.621
		c1.401,5.996-0.853,9.41-6.694,11.512c-1.564,0.563-3.17,1.017-4.773,1.456c-3.284,0.898-4.343,2.174-2.225,5.642
		c4.326,7.079,3.24,11.605-2.703,17.978c-2.578,2.765-4.607,6.118-6.506,9.421c-1.977,3.439-1.875,7.058,0.671,10.314
		c7.269,9.297,6.195,19.309,1.073,28.651c-5.951,10.855-15.25,18.061-28.126,19.189c-14.602,1.279-29.228,2.271-43.842,3.4
		c-1.252,0.097-2.497,0.286-5.359,0.622c4.963,2.882,8.604,5.004,12.252,7.111c2.885,1.665,6.001,3.031,8.591,5.067
		c1.79,1.406,3.354,3.588,3.962,5.725c0.194,0.684-2.838,2.718-4.667,3.473c-11.359,4.688-22.797,9.189-35.363,14.214
		c6.891,4.538,12.861,8.339,18.663,12.382c1.486,1.036,2.439,2.839,3.638,4.289c-1.622,1.265-3.06,3.071-4.899,3.7
		c-7.954,2.718-16.025,5.09-24.179,7.627c3.537,6.451,8.404,9.157,14.746,10.74c16.405,4.094,32.123,9.519,44.154,22.696
		c12.92,14.152,19.6,30.51,21.374,49.44c1.85,19.729,4.521,39.38,6.825,59.065c0.116,0.992,0.402,2.042,0.207,2.981
		c-2.474,11.939,2.91,20.489,10.489,29.291c16.644,19.324,26.159,42.831,35.292,66.284c4.387,11.265,7.343,23.093,10.793,34.712
		c1.978,6.66-0.704,11.742-5.382,16.573c-16.354,16.891-35.768,19.114-57.527,13.602c-20.461-5.183-39.756-13.19-58.944-21.736
		c-93.709-41.733-187.689-82.823-283.988-118.346c-30.887-11.394-62.376-20.317-95.337-23.112
		c-34.054-2.888-66.803,1.608-97.512,17.49c-5.768,2.983-11.507,6.107-17.528,8.484c-3.67,1.449-7.855,1.593-12.914,2.527
		c2.404-11.187,4.385-20.917,6.604-30.593c2.306-10.06,5.306-19.98,7.187-30.114c4.947-26.657,20.362-47.397,37.2-67.408
		c32.279-38.364,69.943-70.816,110.228-100.396c2.44-1.792,4.644-3.904,6.857-6.653c-11.801,0.73-21.298-2.74-27.828-13.417
		c-0.873,6.598-0.006,8.721,7.878,20.621c-0.401,0.252-0.803,0.504-1.205,0.755c-2.469-4.112-6.048-7.947-7.16-12.398
		c-1.929-7.719-6-14.072-9.649-20.887c-5.29-9.875-8.259-20.807-5.417-32.039c1.634-6.458,0.95-11.142-5.549-14.744
		c4.395-2.083,4.105-4.903,3.441-8.732c-0.882-5.088-0.217-10.444-0.217-16.354c-2.086,0.968-3.938,1.828-5.712,2.652
		c-2.029-4.709,0.87-7.573,4.487-10.415c1.098-0.863,1.519-2.826,1.858-4.371c0.962-4.383,1.84-8.794,2.503-13.231
		c0.257-1.719,0.159-3.625-0.31-5.296c-2.645-9.428-2.94-18.355,4.136-26.305c1.473-1.655,2.11-4.056,3.586-7.025
		c-5.68-0.305-10.591-0.569-16.577-0.891c5.451-2.498,12.546-1.939,12.174-10.08c-6.506-0.659-12.807-1.297-19.107-1.935
		c0.053-0.269,0.106-0.538,0.159-0.806c4.176-0.64,8.47-0.877,12.49-2.054c2.9-0.849,5.551-2.786,8.061-4.587
		c0.725-0.521,1.09-2.431,0.752-3.402c-2.267-6.518-0.091-11.948,3.744-17.065c-0.963,3.568-1.927,7.136-3.218,11.92
		c4.452-1.92,7.535-3.25,10.704-4.617c-0.869-3.617-1.556-6.835-2.489-9.981C187.916,364.682,186.635,364.538,185.88,364.237z
		 M284.015,182.957c1.201-2.75,2.401-5.5,4.026-9.22c-6.788,3.682-11.409,7.866-14.182,14.351c2.733,0.313,4.766,0.545,6.837,0.782
		c1.146-2.029,2.178-3.857,3.21-5.685c-0.358,1.451-0.716,2.901-1.238,5.021c12.454-6.394,12.454-6.394,8.494-14.272
		C288.68,177.066,286.348,180.012,284.015,182.957z M196.847,357.131c-0.271,0.123-0.543,0.246-0.815,0.369
		c-0.588-1.698-0.862-3.615-1.851-5.033c-1.002-1.437-2.582-2.684-4.184-3.37c-0.526-0.225-2.706,1.526-2.748,2.438
		c-0.097,2.097,0.575,4.252,1.097,6.344c0.231,0.927,1.039,1.71,1.27,2.637c0.959,3.851,1.799,7.731,2.906,12.583
		c2.938-4.006,4.93-6.853,7.057-9.597c4.862-6.272,4.538-7.508-3.442-11.212C196.395,354.043,196.621,355.587,196.847,357.131z
		 M477.868,96.673c4.353,8.593,14.326,8.57,21.742-1.947C492.094,92.44,485.02,92.751,477.868,96.673z M200.033,322.782
		c5.81-8.733,6.121-18.784,11.573-27.465C198.706,299.947,195.894,312.307,200.033,322.782z M585.229,113.576
		c6.062,7.262,9.939,8.802,20.588,8.177C602.488,115.132,593.726,111.651,585.229,113.576z M650.549,280.919
		c-8.344,3.732-9.221,8.298-3.857,18.635C651.16,293.895,651.715,287.907,650.549,280.919z M666.057,221.555
		c1.768-6.581-2.74-17.334-6.999-19.046c-0.635-0.255-1.888-0.199-2.187,0.207c-0.499,0.676-0.918,2.014-0.572,2.616
		C659.264,210.491,662.408,215.549,666.057,221.555z M644.929,305.782c8.874-5.168,15.779-23.284,11.901-31.31
		c-1.045,1.805-2.456,3.247-2.709,4.87c-0.713,4.574-0.154,9.49-1.598,13.765C651.064,297.428,647.809,301.141,644.929,305.782z
		 M212.056,562.545c-4.833-4.583-9.087-8.616-13.983-13.259C197.156,559.37,202.222,561.874,212.056,562.545z M236.321,235.584
		c-4.204,5.099-6.954,10.305-6.115,17.049c3.123-4.733,6.247-9.466,9.582-14.521C238.851,237.43,237.716,236.602,236.321,235.584z
		 M585.892,122.336c0.443-0.615,0.887-1.23,1.329-1.845c-1.936-1.561-3.926-4.458-5.794-4.381c-3.121,0.128-6.163,2.158-9.238,3.387
		c0.184,0.561,0.367,1.122,0.552,1.684C577.124,121.565,581.508,121.951,585.892,122.336z M263.157,198.799
		c-8.41,3.33-10.853,8.186-7.25,14.915C257.68,208.282,263.796,205.677,263.157,198.799z M178.408,433.091
		c0.707,0.149,1.414,0.297,2.121,0.446c0.969-6.43,1.938-12.859,2.907-19.289c-0.586-0.102-1.173-0.204-1.759-0.305
		C178.071,419.851,177.318,426.297,178.408,433.091z M577.753,109.181c-0.061,0.586-0.121,1.172-0.182,1.758
		c6.618,0.491,13.235,0.982,19.949,1.48C592.713,107.724,585.274,106.52,577.753,109.181z M223.828,258.374
		c0.596,0.182,1.192,0.363,1.789,0.544c1.717-6.382,3.435-12.765,5.35-19.883C225.28,244.161,223.149,250.338,223.828,258.374z
		 M527.609,93.354c-6.38-3.691-15.171-3.176-20.231,1.978C513.843,94.7,520.308,94.068,527.609,93.354z M196.427,329.398
		c1.734-2.831,1.523-13.374-0.391-19.543C192.759,315.293,192.923,323.486,196.427,329.398z M176.933,420.536
		c-4.469,5.912-4.657,16.409,0,21.126C176.933,434.336,176.933,427.886,176.933,420.536z M570.135,109.38
		c-6.995-4.665-9.764-2.972-11.383,7.137C562.75,114.011,566.371,111.74,570.135,109.38z M646.618,174.588
		c2.652-1.906,7.74-0.047,6.262-5.485c-0.4-1.47-2.962-3.744-3.81-3.464C644.921,167.009,645.399,170.424,646.618,174.588z
		 M181.895,435.526c-1.691,3.016-3.082,4.768-3.663,6.756c-0.49,1.678-0.155,3.647,0.107,5.444c0.042,0.29,2.174,0.755,2.388,0.457
		c1.066-1.485,2.4-3.155,2.528-4.844C183.421,441.146,182.539,438.873,181.895,435.526z M651.39,186.71
		c0.439-0.106,0.878-0.212,1.317-0.318c0.291-4.012,0.582-8.024,0.958-13.197c-3.079,2.572-4.925,4.113-6.903,5.766
		C648.426,181.746,649.908,184.228,651.39,186.71z M433.015,95.006c-4.486,0.597-8.974,1.194-14.47,1.925
		C424.817,101.517,426.814,101.261,433.015,95.006z M261.059,207.903c-2.098,4.201-3.844,7.697-6.148,12.314
		C263.267,216.664,265.004,213.289,261.059,207.903z M643.299,281.758c1.469-1.131,2.868-2.213,4.273-3.289
		c0.262-0.201,0.663-0.318,0.794-0.578c0.554-1.101,1.029-2.241,1.533-3.367c-1.288-0.515-2.608-1.531-3.858-1.45
		C642.405,273.312,641.514,276.22,643.299,281.758z M657.093,260.62c-2.532,0.527-4.771,0.578-4.878,1.082
		c-0.735,3.459-1.024,7.013-1.457,10.536c0.734,0.161,1.469,0.321,2.202,0.481C654.196,269.101,655.432,265.484,657.093,260.62z
		 M180.559,454.542c-1.508-2.169-2.833-4.078-4.16-5.986c-0.373,0.045-0.746,0.091-1.119,0.136
		c-0.327,3.683-0.653,7.366-1.112,12.552C176.802,458.481,178.452,456.751,180.559,454.542z M427.27,93.646
		c-6.905-2.312-10.391-1.624-14.384,3.61C417.474,96.104,422.062,94.953,427.27,93.646z M182.043,386.515
		c3.105-2.907,5.528-5.175,8.926-8.356C182.031,379.034,180.568,380.328,182.043,386.515z M328.653,138.72
		c-0.361,0.898-0.722,1.796-1.083,2.694c2.115,1.141,4.23,2.281,6.346,3.422c0.435-1.431,0.869-2.861,1.304-4.292
		C333.03,139.936,330.842,139.328,328.653,138.72z M352.332,118.975c0.238,0.376,0.475,0.752,0.713,1.128
		c4.024-2.428,8.049-4.856,12.073-7.284c-0.31-0.522-0.62-1.043-0.93-1.565C359.373,112.341,355.607,115.235,352.332,118.975z
		 M183.594,441.78c6.518-3.722,3.745-6.948,2.511-10.065c-0.624-0.049-1.247-0.098-1.87-0.147
		C184.048,434.544,183.861,437.521,183.594,441.78z M177.569,532.064c-0.679,0.219-1.357,0.438-2.036,0.657
		c1.485,4.396,2.971,8.792,4.457,13.188c0.475-0.155,0.949-0.31,1.424-0.465C180.132,540.984,178.851,536.524,177.569,532.064z
		 M493.269,103.117c5.052,4.171,5.952,3.791,9.434-3.213C498.95,101.182,496.109,102.149,493.269,103.117z M441.824,101.48
		c-6.345-5.191-7.664-5.047-11.314,0.633C434.074,101.914,437.35,101.731,441.824,101.48z M175.658,511.43
		c-0.346-0.011-0.693-0.021-1.039-0.032c0,5.194,0,10.388,0,15.581c0.346,0.015,0.693,0.03,1.039,0.045
		C175.658,521.826,175.658,516.628,175.658,511.43z M221.747,568.171c0.104-0.596,0.208-1.191,0.313-1.787
		c-3.861-0.713-7.362-4.869-12.611-0.283C214.064,566.878,217.905,567.524,221.747,568.171z M663.555,202.104
		c0.402-0.449,0.804-0.898,1.205-1.348c-3.211-2.176-6.421-4.352-10.219-6.925C654.922,200.668,661.06,199.1,663.555,202.104z
		 M195.346,372.377c0.568,0.452,1.135,0.904,1.703,1.356c2.212-3.168,4.424-6.335,6.636-9.503c-0.592-0.416-1.183-0.831-1.775-1.246
		C199.722,366.116,197.534,369.247,195.346,372.377z M552.88,112.308c0.386-0.88,0.771-1.76,1.156-2.641
		c-1.719-0.833-3.401-1.786-5.205-2.349c-0.223-0.069-1.093,1.94-1.663,2.986C549.072,110.973,550.976,111.641,552.88,112.308z
		 M211.359,291.725c-5.015-2.249-5.748-1.672-7.854,5.844C206.247,295.529,208.534,293.827,211.359,291.725z M571.95,126.065
		c0.106,0.768,0.214,1.536,0.32,2.304c3.39-0.489,6.779-0.979,10.169-1.468c-0.099-0.652-0.198-1.304-0.297-1.956
		C578.745,125.318,575.348,125.692,571.95,126.065z M476.145,107.989c0.067-0.58,0.135-1.16,0.202-1.74
		c-4.89-3.264-5.37-3.291-8.188,0.379C471.146,107.138,473.646,107.563,476.145,107.989z M175.625,480.073
		c0.89-2.427,1.779-4.854,2.71-7.394C173.073,471.768,172.821,472.309,175.625,480.073z M474.714,100.465
		c-0.788-4.557-3.817-6.01-8.447-3.959C468.939,97.759,471.668,99.038,474.714,100.465z"/>
	
</g>
</svg>
