<?xml version="1.0" encoding="utf-8"?>
<!-- Generator: Adobe Illustrator 16.0.0, SVG Export Plug-In . SVG Version: 6.00 Build 0)  -->
<!DOCTYPE svg PUBLIC "-//W3C//DTD SVG 1.1//EN" "http://www.w3.org/Graphics/SVG/1.1/DTD/svg11.dtd">
<svg version="1.1" id="Layer_1" xmlns="http://www.w3.org/2000/svg" xmlns:xlink="http://www.w3.org/1999/xlink" x="0px" y="0px"
	 width="756px" height="1057px" viewBox="0 0 756 1057" enable-background="new 0 0 756 1057" xml:space="preserve">
<g>
	<path fill-rule="evenodd" fill="white" clip-rule="evenodd" d="M27.692,811.325c0.609-2.14,0.938-4.411,1.872-6.397
		c8.63-18.357,17.201-36.746,26.141-54.953c4.326-8.811,9.301-17.312,14.186-25.836c1.969-3.436,4.046-6.997,6.819-9.752
		c11.916-11.84,23.672-23.901,36.303-34.948c19.16-16.756,38.779-33.011,58.675-48.887c6.408-5.112,14.313-8.345,21.519-12.462
		c4.994-2.854,9.964-5.749,15.658-9.038c-8.313-6.823-5.128-12.779-0.582-18.894c5.959-8.015,11.525-16.323,17.561-24.277
		c6.456-8.508,11.149-17.58,12.635-28.37c0.445-3.229,3.198-6.175,5.022-9.172c3.153-5.184,6.662-10.169,9.547-15.496
		c2.954-5.452,5.612-11.105,7.867-16.878c1.305-3.344,1.831-7.068,2.233-10.675c1.146-10.254,2.082-20.532,3.011-30.81
		c0.155-1.715-0.139-3.471-0.293-6.582c-2.177,2.386-3.429,3.759-5.05,5.536c-2.97-7.714-4.901-15.783-9.005-22.532
		c-4.096-6.735-0.419-11.004,1.995-16.183c0.549-1.178,0.777-2.959,0.254-4.021c-0.345-0.7-2.295-0.61-4.02-0.98
		c0.838-2.153,1.778-4.567,2.305-5.92c-1.653-1.889-2.991-3.325-4.206-4.858c-0.382-0.482-0.26-1.383-0.663-1.827
		c-8.198-9.042-4.524-19.706-3.501-29.698c0.479-4.671,1.252-8.967-0.062-13.64c-4.908-17.459-9.866-34.917-14.138-52.537
		c-1.744-7.194-1.916-14.79-2.546-22.225c-0.309-3.638,0.977-7.69-0.197-10.925c-4.299-11.847-0.292-23.634-0.652-35.416
		c-0.098-3.216,1.253-7.113-3.266-8.487c1.964-13.269,3.781-26.288,5.899-39.258c0.461-2.822,1.991-5.472,3.051-8.192
		c0.179-0.46,0.673-0.869,0.687-1.312c0.403-12.869,10.448-22.989,10.209-36.204c-0.051-2.852,3.311-5.784,5.154-8.645
		c1.329-2.064,3.219-3.899,4.035-6.137c2.396-6.572,7.435-9.162,13.597-11.671c5.727-2.332,10.502-6.999,16.074-10.903
		c-1.606-1.399-2.259-1.968-3.917-3.412c18.219-2.185,27.854-14.102,34.451-27.156c3.451-0.673,5.671-0.624,7.394-1.524
		c8.645-4.518,17.956-6.362,27.477-7.823c4.515-0.693,8.791-2.811,13.272-3.875c10.353-2.458,20.967-4.011,31.096-7.155
		c10.885-3.378,21.831-3.713,33-3.894c8.761-0.142,17.561-2.299,26.24-1.792c8.804,0.514,17.482,3.191,26.211,4.943
		c0.806,0.162,1.574,0.69,2.366,0.706c19.998,0.393,37.919,9.432,56.989,13.672c8.894,1.977,17.979,3.339,25.81,8.616
		c8.009,5.396,18.242,7.439,24.13,16.057c0.444,0.65,1.209,1.208,1.946,1.514c13.545,5.631,22.682,16.042,30.554,27.897
		c2.203,3.318,4.829,6.353,7.171,9.583c4.516,6.229,8.966,12.504,13.545,18.902c-5.821,3.131-6.705,8.421-3.589,13.348
		c4.622,7.308,9.48,14.506,13.529,22.127c5.778,10.875,7.884,22.884,9.639,34.975c0.478,3.292,2.405,6.378,3.712,9.541
		c0.25,0.605,0.879,1.077,1.045,1.689c3.351,12.33,6.797,24.636,9.888,37.031c0.873,3.502,0.009,7.486,1.101,10.876
		c3.589,11.14-1.95,17.818-9.955,24.335c-4.482,3.65-7.727,8.931-11.088,13.782c-0.959,1.385-0.803,3.931-0.401,5.779
		c0.594,2.729,1.36,5.664,2.928,7.898c12.345,17.599,18.712,37.776,25.58,57.788c3.075,8.961,7.156,17.574,10.362,26.495
		c1.145,3.185,1.778,6.896,1.396,10.223c-1.244,10.835-4.592,14.47-15.257,16.635c-5.149,1.045-10.494,1.501-15.754,1.527
		c-6.97,0.035-10.75,4.85-9.296,11.656c1.091,5.105,1.879,10.487,1.487,15.646c-0.518,6.799-4.424,11.675-11.362,13.658
		c-2.668,0.762-5.244,1.846-8.066,2.856c2.502,3.472,4.978,6.4,6.89,9.66c5.033,8.578,3.783,15.788-3.534,22.22
		c-11.63,10.224-11.473,10.182-7.441,25.295c1.661,6.227,3.415,12.669,3.483,19.03c0.132,12.39-6.874,21.314-18.778,24.647
		c-24.523,6.865-49.126,13.459-73.755,19.936c-3.598,0.946-5.297,2.402-5.71,6.17c-1.081,9.866-3.99,19.119-9.519,27.558
		c-1.08,1.648-1.046,4.969-0.133,6.838c11.447,23.416,25.266,45.376,41.479,65.797c5.986,7.539,11.489,15.495,19.809,20.931
		c4.319,2.822,7.879,6.789,12.132,9.732c28.459,19.699,49.264,45.54,62.509,77.467c4.592,11.069,9.122,22.175,13.237,33.426
		c2.047,5.596,2.951,11.598,4.624,17.343c2.284,7.848-1.213,13.099-6.61,18.462c-14.478,14.387-31.458,15.243-49.622,10.077
		c-10.233-2.91-20.627-5.717-30.317-9.999c-44.115-19.494-89.765-34.539-135.968-48.068
		c-63.118-18.482-126.475-36.054-190.803-49.911c-32.287-6.956-64.768-12.454-97.903-13.043
		c-29.625-0.527-59.119,1.142-87.362,10.664c-14.241,4.802-27.585,12.258-41.353,18.473c-3.869,1.746-7.804,3.347-11.708,5.015
		C28.63,812.246,28.161,811.786,27.692,811.325z"/>
</g>
</svg>
